<svg width="706" height="39" viewBox="0 0 706 39" fill="none" xmlns="http://www.w3.org/2000/svg">
    <g clip-path="url(#clip0_1_12983)">
        <rect width="706" height="38" transform="translate(0 0.151367)" fill="#EAEAEA" />
        <path
            d="M22.8964 24.1514H21.6932V17.9102C21.6932 17.7142 21.6932 17.5046 21.6932 17.2812C21.6978 17.0579 21.7024 16.8369 21.7069 16.6182C21.716 16.3949 21.7229 16.1829 21.7274 15.9824C21.7365 15.7773 21.7434 15.5973 21.7479 15.4424C21.6705 15.5244 21.6021 15.5951 21.5428 15.6543C21.4836 15.7135 21.4221 15.7705 21.3583 15.8252C21.299 15.8799 21.2352 15.9391 21.1669 16.0029C21.0985 16.0622 21.0165 16.1328 20.9208 16.2148L19.9091 17.042L19.2528 16.2012L21.871 14.1572H22.8964V24.1514Z"
            fill="#857857" />
        <path
            d="M48.3633 24.2881C48.0944 24.2881 47.8506 24.2585 47.6318 24.1992C47.4131 24.14 47.2148 24.0625 47.0371 23.9668C46.8639 23.8665 46.709 23.7503 46.5723 23.6182C46.4401 23.486 46.3216 23.347 46.2168 23.2012H46.1348C46.1484 23.3561 46.1621 23.5042 46.1758 23.6455C46.1849 23.764 46.194 23.887 46.2031 24.0146C46.2122 24.1377 46.2168 24.2357 46.2168 24.3086V27.5146H44.9727V16.6455H45.9844L46.1621 17.6572H46.2168C46.3216 17.4977 46.4401 17.3496 46.5723 17.2129C46.7044 17.0716 46.8571 16.9508 47.0303 16.8506C47.208 16.7458 47.4062 16.6637 47.625 16.6045C47.8438 16.5407 48.0898 16.5088 48.3633 16.5088C48.7917 16.5088 49.1813 16.5908 49.5322 16.7549C49.8831 16.9189 50.1816 17.165 50.4277 17.4932C50.6784 17.8167 50.8721 18.2201 51.0088 18.7031C51.1455 19.1862 51.2139 19.7467 51.2139 20.3848C51.2139 21.0273 51.1455 21.5924 51.0088 22.0801C50.8721 22.5632 50.6784 22.9688 50.4277 23.2969C50.1816 23.625 49.8831 23.8734 49.5322 24.042C49.1813 24.2061 48.7917 24.2881 48.3633 24.2881ZM48.124 17.541C47.7777 17.541 47.4837 17.5934 47.2422 17.6982C47.0052 17.8031 46.8115 17.9626 46.6611 18.1768C46.5153 18.391 46.4059 18.6576 46.333 18.9766C46.2646 19.2956 46.2259 19.6715 46.2168 20.1045V20.3848C46.2168 20.8451 46.2464 21.2552 46.3057 21.6152C46.3695 21.9707 46.4743 22.2715 46.6201 22.5176C46.7705 22.7591 46.9688 22.9437 47.2148 23.0713C47.4609 23.1943 47.7686 23.2559 48.1377 23.2559C48.7529 23.2559 49.2041 23.0075 49.4912 22.5107C49.7829 22.014 49.9287 21.3008 49.9287 20.3711C49.9287 19.4232 49.7829 18.7145 49.4912 18.2451C49.2041 17.7757 48.7484 17.541 48.124 17.541ZM57.6872 24.1514L57.4343 23.1123H57.3796C57.2292 23.3174 57.0788 23.4951 56.9284 23.6455C56.778 23.7913 56.614 23.9121 56.4362 24.0078C56.2585 24.1035 56.0603 24.1742 55.8415 24.2197C55.6228 24.2653 55.3698 24.2881 55.0827 24.2881C54.7683 24.2881 54.4789 24.2425 54.2146 24.1514C53.9502 24.0648 53.7201 23.9303 53.5241 23.748C53.3327 23.5612 53.1823 23.3288 53.073 23.0508C52.9636 22.7682 52.9089 22.4355 52.9089 22.0527C52.9089 21.3053 53.171 20.7311 53.695 20.3301C54.2237 19.929 55.0258 19.7103 56.1013 19.6738L57.3591 19.626V19.1543C57.3591 18.849 57.3249 18.5938 57.2566 18.3887C57.1928 18.1836 57.0971 18.0195 56.9695 17.8965C56.8464 17.7689 56.6915 17.6777 56.5046 17.623C56.3223 17.5684 56.1127 17.541 55.8757 17.541C55.4974 17.541 55.1443 17.5957 54.8161 17.7051C54.4926 17.8145 54.1804 17.9466 53.8796 18.1016L53.4421 17.165C53.7793 16.9827 54.1553 16.8278 54.57 16.7002C54.9848 16.5726 55.42 16.5088 55.8757 16.5088C56.3405 16.5088 56.7416 16.5566 57.0788 16.6523C57.4206 16.7435 57.7009 16.8916 57.9196 17.0967C58.143 17.2972 58.3093 17.5547 58.4187 17.8691C58.528 18.1836 58.5827 18.5641 58.5827 19.0107V24.1514H57.6872ZM55.404 23.2832C55.682 23.2832 55.9395 23.2399 56.1765 23.1533C56.4135 23.0667 56.6185 22.9368 56.7917 22.7637C56.9649 22.5859 57.0993 22.3649 57.195 22.1006C57.2953 21.8317 57.3454 21.5173 57.3454 21.1572V20.4805L56.3679 20.5283C55.9577 20.5465 55.6137 20.5921 55.3357 20.665C55.0577 20.738 54.8344 20.8405 54.6657 20.9727C54.5017 21.1003 54.3832 21.2575 54.3103 21.4443C54.2374 21.6266 54.2009 21.834 54.2009 22.0664C54.2009 22.4857 54.3103 22.7933 54.529 22.9893C54.7523 23.1852 55.044 23.2832 55.404 23.2832ZM64.0444 24.2881C63.5841 24.2881 63.1534 24.2174 62.7524 24.0762C62.3513 23.9303 62.0027 23.7025 61.7065 23.3926C61.4103 23.0781 61.1778 22.6794 61.0092 22.1963C60.8406 21.7087 60.7563 21.123 60.7563 20.4395C60.7563 19.724 60.8429 19.1178 61.0161 18.6211C61.1892 18.1198 61.4262 17.7142 61.727 17.4043C62.0323 17.0898 62.3878 16.862 62.7934 16.7207C63.199 16.5794 63.6342 16.5088 64.0991 16.5088C64.4545 16.5088 64.8009 16.5475 65.1381 16.625C65.4799 16.7025 65.7648 16.7982 65.9926 16.9121L65.6235 17.9648C65.5187 17.9193 65.4024 17.876 65.2748 17.835C65.1472 17.7894 65.0151 17.7507 64.8784 17.7188C64.7416 17.6823 64.6072 17.6549 64.475 17.6367C64.3429 17.6139 64.2176 17.6025 64.0991 17.6025C63.3836 17.6025 62.8618 17.8327 62.5336 18.293C62.2055 18.7487 62.0414 19.4596 62.0414 20.4258C62.0414 21.3874 62.2055 22.0915 62.5336 22.5381C62.8663 22.9801 63.3699 23.2012 64.0444 23.2012C64.4135 23.2012 64.7462 23.1602 65.0424 23.0781C65.3432 22.9915 65.6166 22.8913 65.8627 22.7773V23.8848C65.6166 24.0169 65.3523 24.1172 65.0698 24.1855C64.7918 24.2539 64.45 24.2881 64.0444 24.2881ZM69.0822 20.2754L70.005 19.1133L72.008 16.6455H73.4504L70.7091 19.8926L73.6349 24.1514H72.2062L69.9093 20.7061L69.1642 21.2666V24.1514H67.9338V13.5146H69.1642V18.3955L69.0548 20.2754H69.0822ZM79.3905 24.1514L79.1376 23.1123H79.0829C78.9325 23.3174 78.7821 23.4951 78.6317 23.6455C78.4813 23.7913 78.3173 23.9121 78.1395 24.0078C77.9618 24.1035 77.7636 24.1742 77.5448 24.2197C77.3261 24.2653 77.0731 24.2881 76.786 24.2881C76.4716 24.2881 76.1822 24.2425 75.9179 24.1514C75.6535 24.0648 75.4234 23.9303 75.2274 23.748C75.036 23.5612 74.8856 23.3288 74.7763 23.0508C74.6669 22.7682 74.6122 22.4355 74.6122 22.0527C74.6122 21.3053 74.8742 20.7311 75.3983 20.3301C75.927 19.929 76.7291 19.7103 77.8046 19.6738L79.0624 19.626V19.1543C79.0624 18.849 79.0282 18.5938 78.9598 18.3887C78.896 18.1836 78.8003 18.0195 78.6727 17.8965C78.5497 17.7689 78.3947 17.6777 78.2079 17.623C78.0256 17.5684 77.816 17.541 77.579 17.541C77.2007 17.541 76.8475 17.5957 76.5194 17.7051C76.1958 17.8145 75.8837 17.9466 75.5829 18.1016L75.1454 17.165C75.4826 16.9827 75.8586 16.8278 76.2733 16.7002C76.688 16.5726 77.1233 16.5088 77.579 16.5088C78.0438 16.5088 78.4449 16.5566 78.7821 16.6523C79.1239 16.7435 79.4042 16.8916 79.6229 17.0967C79.8462 17.2972 80.0126 17.5547 80.122 17.8691C80.2313 18.1836 80.286 18.5641 80.286 19.0107V24.1514H79.3905ZM77.1073 23.2832C77.3853 23.2832 77.6428 23.2399 77.8798 23.1533C78.1167 23.0667 78.3218 22.9368 78.495 22.7637C78.6682 22.5859 78.8026 22.3649 78.8983 22.1006C78.9986 21.8317 79.0487 21.5173 79.0487 21.1572V20.4805L78.0712 20.5283C77.661 20.5465 77.3169 20.5921 77.0389 20.665C76.761 20.738 76.5376 20.8405 76.369 20.9727C76.205 21.1003 76.0865 21.2575 76.0136 21.4443C75.9406 21.6266 75.9042 21.834 75.9042 22.0664C75.9042 22.4857 76.0136 22.7933 76.2323 22.9893C76.4556 23.1852 76.7473 23.2832 77.1073 23.2832ZM88.6598 16.6455V17.418L87.3131 17.6025C87.4407 17.762 87.5478 17.9671 87.6344 18.2178C87.721 18.4639 87.7643 18.7441 87.7643 19.0586C87.7643 19.4049 87.7096 19.7262 87.6002 20.0225C87.4954 20.3141 87.3336 20.5671 87.1148 20.7812C86.9007 20.9954 86.6341 21.1641 86.315 21.2871C85.996 21.4056 85.6246 21.4648 85.2008 21.4648C85.1005 21.4648 85.0003 21.4648 84.9 21.4648C84.7997 21.4603 84.7177 21.4512 84.6539 21.4375C84.5764 21.4831 84.499 21.5355 84.4215 21.5947C84.3486 21.6494 84.2802 21.7132 84.2164 21.7861C84.1572 21.859 84.107 21.9411 84.066 22.0322C84.0296 22.1234 84.0113 22.2236 84.0113 22.333C84.0113 22.4561 84.0387 22.5563 84.0934 22.6338C84.148 22.7067 84.221 22.7637 84.3121 22.8047C84.4078 22.8457 84.5195 22.873 84.6471 22.8867C84.7747 22.9004 84.9091 22.9072 85.0504 22.9072H86.2535C86.6773 22.9072 87.0351 22.9619 87.3268 23.0713C87.6184 23.1761 87.8554 23.3197 88.0377 23.502C88.2245 23.6842 88.359 23.9007 88.441 24.1514C88.523 24.3975 88.5641 24.6595 88.5641 24.9375C88.5641 25.3385 88.4889 25.6986 88.3385 26.0176C88.1926 26.3366 87.9671 26.6055 87.6617 26.8242C87.3564 27.0475 86.969 27.2184 86.4996 27.3369C86.0348 27.4554 85.4856 27.5146 84.8521 27.5146C84.3645 27.5146 83.9384 27.4668 83.5738 27.3711C83.2092 27.2754 82.9062 27.1364 82.6646 26.9541C82.4231 26.7718 82.2408 26.5508 82.1178 26.291C81.9993 26.0358 81.94 25.7464 81.94 25.4229C81.94 25.1494 81.9833 24.9079 82.0699 24.6982C82.1611 24.4932 82.2818 24.3154 82.4322 24.165C82.5826 24.0146 82.7558 23.8916 82.9518 23.7959C83.1523 23.7002 83.3596 23.6273 83.5738 23.5771C83.3824 23.4906 83.2252 23.3538 83.1021 23.167C82.9791 22.9801 82.9176 22.766 82.9176 22.5244C82.9176 22.2464 82.9905 22.0072 83.1363 21.8066C83.2822 21.6016 83.5123 21.4033 83.8268 21.2119C83.6308 21.1299 83.4508 21.0182 83.2867 20.877C83.1272 20.7311 82.9905 20.5671 82.8766 20.3848C82.7672 20.1979 82.6806 19.9951 82.6168 19.7764C82.5576 19.5576 82.5279 19.332 82.5279 19.0996C82.5279 18.694 82.5849 18.3317 82.6988 18.0127C82.8128 17.6937 82.9814 17.4225 83.2047 17.1992C83.428 16.9759 83.706 16.805 84.0387 16.6865C84.3714 16.568 84.7587 16.5088 85.2008 16.5088C85.3694 16.5088 85.5426 16.5225 85.7203 16.5498C85.9026 16.5726 86.0553 16.6045 86.1783 16.6455H88.6598ZM83.1158 25.3818C83.1158 25.5505 83.1454 25.7077 83.2047 25.8535C83.2639 25.9993 83.3596 26.1247 83.4918 26.2295C83.6285 26.3343 83.8063 26.4163 84.025 26.4756C84.2483 26.5394 84.524 26.5713 84.8521 26.5713C85.6998 26.5713 86.3333 26.4391 86.7525 26.1748C87.1764 25.915 87.3883 25.5391 87.3883 25.0469C87.3883 24.8372 87.3609 24.6663 87.3063 24.5342C87.2516 24.402 87.1604 24.2972 87.0328 24.2197C86.9098 24.1468 86.7457 24.0967 86.5406 24.0693C86.3355 24.042 86.0849 24.0283 85.7887 24.0283H84.5855C84.426 24.0283 84.2597 24.0465 84.0865 24.083C83.9133 24.1195 83.7538 24.1878 83.608 24.2881C83.4667 24.3883 83.3482 24.5251 83.2525 24.6982C83.1614 24.876 83.1158 25.1038 83.1158 25.3818ZM83.7447 19.0586C83.7447 19.5827 83.8678 19.9723 84.1139 20.2275C84.36 20.4827 84.7086 20.6104 85.1598 20.6104C85.6155 20.6104 85.9596 20.485 86.192 20.2344C86.429 19.9792 86.5475 19.5804 86.5475 19.0381C86.5475 18.4775 86.4267 18.0651 86.1852 17.8008C85.9482 17.5365 85.6018 17.4043 85.1461 17.4043C84.6949 17.4043 84.3486 17.541 84.107 17.8145C83.8655 18.0879 83.7447 18.5026 83.7447 19.0586ZM93.3831 24.2881C92.8818 24.2881 92.4238 24.2038 92.0091 24.0352C91.5944 23.8665 91.2366 23.6204 90.9359 23.2969C90.6396 22.9733 90.4095 22.5723 90.2454 22.0938C90.0814 21.6152 89.9993 21.0684 89.9993 20.4531C89.9993 19.8333 90.0745 19.2796 90.2249 18.792C90.3753 18.3044 90.5872 17.8919 90.8607 17.5547C91.1341 17.2129 91.4599 16.9531 91.8382 16.7754C92.221 16.5977 92.6426 16.5088 93.1029 16.5088C93.554 16.5088 93.9596 16.5908 94.3196 16.7549C94.6797 16.9144 94.985 17.1423 95.2357 17.4385C95.4863 17.7301 95.6777 18.0833 95.8099 18.498C95.9466 18.9082 96.015 19.3639 96.015 19.8652V20.6377H91.2845C91.3073 21.5173 91.4918 22.1644 91.8382 22.5791C92.1891 22.9938 92.7086 23.2012 93.3968 23.2012C93.6292 23.2012 93.8434 23.1898 94.0394 23.167C94.2399 23.1442 94.4313 23.1123 94.6136 23.0713C94.8004 23.0257 94.9805 22.971 95.1536 22.9072C95.3268 22.8389 95.5023 22.7637 95.68 22.6816V23.7891C95.4977 23.8757 95.3177 23.9508 95.14 24.0146C94.9668 24.0785 94.7868 24.1309 94.5999 24.1719C94.4176 24.2129 94.2262 24.2425 94.0257 24.2607C93.8297 24.279 93.6155 24.2881 93.3831 24.2881ZM93.0755 17.541C92.556 17.541 92.1435 17.7188 91.8382 18.0742C91.5374 18.4297 91.362 18.9469 91.3118 19.626H94.6751C94.6751 19.3161 94.6432 19.0335 94.5794 18.7783C94.5202 18.5186 94.4245 18.2975 94.2923 18.1152C94.1647 17.9329 94.0006 17.7917 93.8001 17.6914C93.5996 17.5911 93.3581 17.541 93.0755 17.541ZM111.094 24.1514V19.3184C111.094 18.7259 110.981 18.2816 110.753 17.9854C110.525 17.6891 110.172 17.541 109.693 17.541C109.36 17.541 109.078 17.5957 108.845 17.7051C108.613 17.8099 108.422 17.9671 108.271 18.1768C108.125 18.3818 108.018 18.6393 107.95 18.9492C107.882 19.2546 107.847 19.6077 107.847 20.0088V24.1514H106.596V19.3184C106.596 18.7259 106.483 18.2816 106.255 17.9854C106.031 17.6891 105.68 17.541 105.202 17.541C104.851 17.541 104.557 17.6003 104.32 17.7188C104.083 17.8372 103.892 18.0127 103.746 18.2451C103.605 18.4775 103.502 18.7624 103.438 19.0996C103.379 19.4368 103.349 19.8242 103.349 20.2617V24.1514H102.105V16.6455H103.117L103.295 17.6572H103.363C103.472 17.4613 103.602 17.2926 103.753 17.1514C103.903 17.0055 104.067 16.8848 104.245 16.7891C104.427 16.6934 104.619 16.6227 104.819 16.5771C105.024 16.5316 105.232 16.5088 105.441 16.5088C105.988 16.5088 106.441 16.609 106.802 16.8096C107.166 17.0101 107.435 17.3245 107.608 17.7529H107.663C107.781 17.5387 107.923 17.3542 108.087 17.1992C108.255 17.0443 108.438 16.9167 108.634 16.8164C108.834 16.7116 109.044 16.6341 109.262 16.584C109.481 16.5339 109.705 16.5088 109.932 16.5088C110.73 16.5088 111.329 16.7275 111.73 17.165C112.136 17.598 112.339 18.293 112.339 19.25V24.1514H111.094ZM119.167 24.1514L118.915 23.1123H118.86C118.709 23.3174 118.559 23.4951 118.409 23.6455C118.258 23.7913 118.094 23.9121 117.916 24.0078C117.739 24.1035 117.541 24.1742 117.322 24.2197C117.103 24.2653 116.85 24.2881 116.563 24.2881C116.249 24.2881 115.959 24.2425 115.695 24.1514C115.43 24.0648 115.2 23.9303 115.004 23.748C114.813 23.5612 114.663 23.3288 114.553 23.0508C114.444 22.7682 114.389 22.4355 114.389 22.0527C114.389 21.3053 114.651 20.7311 115.175 20.3301C115.704 19.929 116.506 19.7103 117.582 19.6738L118.839 19.626V19.1543C118.839 18.849 118.805 18.5938 118.737 18.3887C118.673 18.1836 118.577 18.0195 118.45 17.8965C118.327 17.7689 118.172 17.6777 117.985 17.623C117.803 17.5684 117.593 17.541 117.356 17.541C116.978 17.541 116.624 17.5957 116.296 17.7051C115.973 17.8145 115.661 17.9466 115.36 18.1016L114.922 17.165C115.26 16.9827 115.636 16.8278 116.05 16.7002C116.465 16.5726 116.9 16.5088 117.356 16.5088C117.821 16.5088 118.222 16.5566 118.559 16.6523C118.901 16.7435 119.181 16.8916 119.4 17.0967C119.623 17.2972 119.79 17.5547 119.899 17.8691C120.008 18.1836 120.063 18.5641 120.063 19.0107V24.1514H119.167ZM116.884 23.2832C117.162 23.2832 117.42 23.2399 117.657 23.1533C117.894 23.0667 118.099 22.9368 118.272 22.7637C118.445 22.5859 118.58 22.3649 118.675 22.1006C118.776 21.8317 118.826 21.5173 118.826 21.1572V20.4805L117.848 20.5283C117.438 20.5465 117.094 20.5921 116.816 20.665C116.538 20.738 116.315 20.8405 116.146 20.9727C115.982 21.1003 115.863 21.2575 115.791 21.4443C115.718 21.6266 115.681 21.834 115.681 22.0664C115.681 22.4857 115.791 22.7933 116.009 22.9893C116.233 23.1852 116.524 23.2832 116.884 23.2832ZM123.898 24.1514H122.654V16.6455H123.898V24.1514ZM122.558 14.6152C122.558 14.3418 122.626 14.1436 122.763 14.0205C122.904 13.8975 123.077 13.8359 123.282 13.8359C123.383 13.8359 123.476 13.8519 123.563 13.8838C123.654 13.9111 123.731 13.9567 123.795 14.0205C123.863 14.0843 123.916 14.1663 123.952 14.2666C123.993 14.3623 124.014 14.4785 124.014 14.6152C124.014 14.8796 123.941 15.0778 123.795 15.21C123.654 15.3376 123.483 15.4014 123.282 15.4014C123.077 15.4014 122.904 15.3376 122.763 15.21C122.626 15.0824 122.558 14.8841 122.558 14.6152ZM131.246 24.1514V19.3184C131.246 18.7259 131.125 18.2816 130.884 17.9854C130.647 17.6891 130.273 17.541 129.763 17.541C129.393 17.541 129.084 17.6003 128.833 17.7188C128.582 17.8372 128.379 18.0127 128.225 18.2451C128.074 18.4775 127.965 18.7624 127.896 19.0996C127.833 19.4368 127.801 19.8242 127.801 20.2617V24.1514H126.557V16.6455H127.568L127.746 17.6572H127.814C127.928 17.4613 128.063 17.2926 128.218 17.1514C128.377 17.0055 128.55 16.8848 128.737 16.7891C128.924 16.6934 129.122 16.6227 129.332 16.5771C129.542 16.5316 129.756 16.5088 129.975 16.5088C130.809 16.5088 131.435 16.7275 131.854 17.165C132.278 17.598 132.49 18.293 132.49 19.25V24.1514H131.246Z"
            fill="black" />
    </g>
    <defs>
        <clipPath id="clip0_1_12983">
            <rect width="706" height="38" fill="white" transform="translate(0 0.151367)" />
        </clipPath>
    </defs>
</svg>
    