<svg width="645" height="147" viewBox="0 0 645 147" fill="none" xmlns="http://www.w3.org/2000/svg">
    <rect width="645" height="146" transform="translate(0 0.151367)" fill="#EAEAEA" />
    <path
        d="M21.0049 24.1514H19.8018V17.9102C19.8018 17.7142 19.8018 17.5046 19.8018 17.2812C19.8063 17.0579 19.8109 16.8369 19.8154 16.6182C19.8245 16.3949 19.8314 16.1829 19.8359 15.9824C19.8451 15.7773 19.8519 15.5973 19.8564 15.4424C19.779 15.5244 19.7106 15.5951 19.6514 15.6543C19.5921 15.7135 19.5306 15.7705 19.4668 15.8252C19.4076 15.8799 19.3438 15.9391 19.2754 16.0029C19.207 16.0622 19.125 16.1328 19.0293 16.2148L18.0176 17.042L17.3613 16.2012L19.9795 14.1572H21.0049V24.1514ZM23.0352 42.1514H16.8008V41.085L19.1934 38.4805C19.5352 38.1113 19.8405 37.7741 20.1094 37.4688C20.3783 37.1634 20.6061 36.8649 20.793 36.5732C20.9844 36.2816 21.1302 35.9899 21.2305 35.6982C21.3307 35.402 21.3809 35.0807 21.3809 34.7344C21.3809 34.4655 21.3421 34.2285 21.2646 34.0234C21.1872 33.8184 21.0755 33.6452 20.9297 33.5039C20.7884 33.3581 20.6198 33.2487 20.4238 33.1758C20.2279 33.1029 20.0091 33.0664 19.7676 33.0664C19.3346 33.0664 18.9427 33.1553 18.5918 33.333C18.2454 33.5062 17.915 33.7295 17.6006 34.0029L16.9033 33.1895C17.0856 33.0254 17.2816 32.8727 17.4912 32.7314C17.7008 32.5856 17.9264 32.4603 18.168 32.3555C18.4095 32.2507 18.6647 32.1686 18.9336 32.1094C19.2025 32.0456 19.485 32.0137 19.7812 32.0137C20.2188 32.0137 20.613 32.0752 20.9639 32.1982C21.3193 32.3213 21.6201 32.499 21.8662 32.7314C22.1123 32.9593 22.3014 33.2396 22.4336 33.5723C22.5703 33.9004 22.6387 34.2718 22.6387 34.6865C22.6387 35.0739 22.5771 35.443 22.4541 35.7939C22.3356 36.1449 22.1693 36.4912 21.9551 36.833C21.7454 37.1702 21.4925 37.5098 21.1963 37.8516C20.9046 38.1934 20.5879 38.5488 20.2461 38.918L18.3252 40.9619V41.0166H23.0352V42.1514ZM22.7139 52.4951C22.7139 52.8278 22.6615 53.1309 22.5566 53.4043C22.4518 53.6777 22.3037 53.9147 22.1123 54.1152C21.9255 54.3158 21.6999 54.4821 21.4355 54.6143C21.1712 54.7419 20.8773 54.833 20.5537 54.8877V54.9287C21.3604 55.029 21.9733 55.2865 22.3926 55.7012C22.8118 56.1113 23.0215 56.6468 23.0215 57.3076C23.0215 57.7451 22.9463 58.1462 22.7959 58.5107C22.6501 58.8753 22.4268 59.1898 22.126 59.4541C21.8252 59.7184 21.4447 59.9235 20.9844 60.0693C20.5241 60.2152 19.9795 60.2881 19.3506 60.2881C18.8538 60.2881 18.3844 60.2493 17.9424 60.1719C17.5049 60.0944 17.0924 59.9531 16.7051 59.748V58.5859C17.1016 58.7956 17.5299 58.9574 17.9902 59.0713C18.4551 59.1852 18.8994 59.2422 19.3232 59.2422C19.7425 59.2422 20.1048 59.1966 20.4102 59.1055C20.7155 59.0143 20.9661 58.8844 21.1621 58.7158C21.3626 58.5472 21.5085 58.3398 21.5996 58.0938C21.6953 57.8477 21.7432 57.5719 21.7432 57.2666C21.7432 56.9567 21.6816 56.6924 21.5586 56.4736C21.4401 56.2503 21.2692 56.068 21.0459 55.9268C20.8226 55.7809 20.5492 55.6738 20.2256 55.6055C19.9066 55.5371 19.5443 55.5029 19.1387 55.5029H18.2295V54.4707H19.1387C19.5078 54.4707 19.8359 54.4251 20.123 54.334C20.4102 54.2428 20.6494 54.113 20.8408 53.9443C21.0368 53.7757 21.1849 53.5752 21.2852 53.3428C21.3854 53.1104 21.4355 52.8551 21.4355 52.5771C21.4355 52.3402 21.3945 52.1283 21.3125 51.9414C21.2305 51.7546 21.1143 51.5973 20.9639 51.4697C20.8135 51.3376 20.6335 51.2373 20.4238 51.1689C20.2142 51.1006 19.9818 51.0664 19.7266 51.0664C19.2389 51.0664 18.8083 51.1439 18.4346 51.2988C18.0654 51.4492 17.7122 51.6475 17.375 51.8936L16.7461 51.0391C16.9193 50.8978 17.1107 50.7656 17.3203 50.6426C17.5345 50.5195 17.7669 50.4124 18.0176 50.3213C18.2682 50.2256 18.5348 50.1504 18.8174 50.0957C19.1045 50.041 19.4076 50.0137 19.7266 50.0137C20.2188 50.0137 20.6494 50.0752 21.0186 50.1982C21.3923 50.3213 21.7044 50.4945 21.9551 50.7178C22.2057 50.9365 22.3949 51.1986 22.5225 51.5039C22.6501 51.8047 22.7139 52.1351 22.7139 52.4951ZM23.5752 75.9092H22.1191V78.1514H20.916V75.9092H16.3018V74.8223L20.834 68.1025H22.1191V74.7744H23.5752V75.9092ZM20.916 74.7744V72.3408C20.916 72.0856 20.9183 71.819 20.9229 71.541C20.932 71.2585 20.9411 70.985 20.9502 70.7207C20.9593 70.4518 20.9684 70.2012 20.9775 69.9688C20.9912 69.7363 21.0003 69.5426 21.0049 69.3877H20.9434C20.9115 69.4788 20.8704 69.5814 20.8203 69.6953C20.7747 69.8047 20.7223 69.9163 20.6631 70.0303C20.6084 70.1396 20.5514 70.2467 20.4922 70.3516C20.4329 70.4564 20.3783 70.5452 20.3281 70.6182L17.5186 74.7744H20.916ZM19.8701 90.0195C20.3213 90.0195 20.7406 90.0833 21.1279 90.2109C21.5199 90.334 21.8594 90.5186 22.1465 90.7646C22.4382 91.0107 22.666 91.3161 22.8301 91.6807C22.9941 92.0452 23.0762 92.4668 23.0762 92.9453C23.0762 93.4648 22.9987 93.932 22.8438 94.3467C22.6888 94.7614 22.4587 95.1123 22.1533 95.3994C21.848 95.6865 21.4697 95.9076 21.0186 96.0625C20.5719 96.2129 20.057 96.2881 19.4736 96.2881C19.2412 96.2881 19.0111 96.2767 18.7832 96.2539C18.5599 96.2311 18.3434 96.1969 18.1338 96.1514C17.9287 96.1104 17.7327 96.0557 17.5459 95.9873C17.359 95.9189 17.1904 95.8392 17.04 95.748V94.5723C17.1904 94.6771 17.3659 94.7705 17.5664 94.8525C17.7715 94.9346 17.9857 95.0029 18.209 95.0576C18.4323 95.1123 18.6556 95.1556 18.8789 95.1875C19.1068 95.2148 19.3164 95.2285 19.5078 95.2285C19.8678 95.2285 20.1891 95.1875 20.4717 95.1055C20.7542 95.0189 20.9935 94.8867 21.1895 94.709C21.3854 94.5312 21.5358 94.3079 21.6406 94.0391C21.7454 93.7702 21.7979 93.4512 21.7979 93.082C21.7979 92.4303 21.5973 91.9336 21.1963 91.5918C20.7952 91.2454 20.2119 91.0723 19.4463 91.0723C19.3232 91.0723 19.1888 91.0791 19.043 91.0928C18.9017 91.1019 18.7581 91.1156 18.6123 91.1338C18.471 91.152 18.3343 91.1725 18.2021 91.1953C18.0745 91.2135 17.9629 91.2318 17.8672 91.25L17.252 90.8604L17.6279 86.1572H22.3447V87.292H18.708L18.4414 90.1562C18.5872 90.1289 18.7786 90.0993 19.0156 90.0674C19.2572 90.0355 19.542 90.0195 19.8701 90.0195ZM16.917 109.879C16.917 109.4 16.9398 108.924 16.9854 108.45C17.0355 107.976 17.1198 107.523 17.2383 107.09C17.3613 106.652 17.5277 106.247 17.7373 105.873C17.9469 105.499 18.2135 105.176 18.5371 104.902C18.8607 104.624 19.248 104.408 19.6992 104.253C20.1504 104.093 20.679 104.014 21.2852 104.014C21.3717 104.014 21.4674 104.016 21.5723 104.021C21.6771 104.025 21.7819 104.034 21.8867 104.048C21.9961 104.057 22.0986 104.071 22.1943 104.089C22.2946 104.103 22.3835 104.121 22.4609 104.144V105.203C22.3014 105.148 22.1214 105.107 21.9209 105.08C21.7204 105.053 21.5221 105.039 21.3262 105.039C20.916 105.039 20.5537 105.089 20.2393 105.189C19.9294 105.285 19.6605 105.422 19.4326 105.6C19.2048 105.777 19.0133 105.989 18.8584 106.235C18.708 106.481 18.585 106.755 18.4893 107.056C18.3936 107.352 18.3229 107.669 18.2773 108.006C18.2318 108.343 18.2021 108.694 18.1885 109.059H18.2705C18.3617 108.895 18.471 108.742 18.5986 108.601C18.7308 108.455 18.8835 108.332 19.0566 108.231C19.2298 108.127 19.4235 108.045 19.6377 107.985C19.8564 107.926 20.1003 107.896 20.3691 107.896C20.8021 107.896 21.194 107.965 21.5449 108.102C21.8958 108.234 22.1943 108.43 22.4404 108.689C22.6865 108.949 22.8757 109.268 23.0078 109.646C23.1445 110.02 23.2129 110.449 23.2129 110.932C23.2129 111.451 23.1423 111.918 23.001 112.333C22.8597 112.748 22.6569 113.101 22.3926 113.393C22.1283 113.68 21.8092 113.901 21.4355 114.056C21.0618 114.211 20.6426 114.288 20.1777 114.288C19.722 114.288 19.2936 114.199 18.8926 114.021C18.4961 113.844 18.152 113.573 17.8604 113.208C17.5687 112.843 17.3385 112.385 17.1699 111.834C17.0013 111.283 16.917 110.631 16.917 109.879ZM20.1641 113.242C20.4375 113.242 20.6859 113.197 20.9092 113.105C21.137 113.01 21.333 112.868 21.4971 112.682C21.6611 112.49 21.7865 112.251 21.873 111.964C21.9642 111.672 22.0098 111.328 22.0098 110.932C22.0098 110.613 21.971 110.328 21.8936 110.077C21.8206 109.822 21.709 109.605 21.5586 109.428C21.4082 109.25 21.2191 109.113 20.9912 109.018C20.7679 108.922 20.5059 108.874 20.2051 108.874C19.8997 108.874 19.6195 108.929 19.3643 109.038C19.1136 109.143 18.8994 109.282 18.7217 109.455C18.5439 109.624 18.4049 109.817 18.3047 110.036C18.209 110.255 18.1611 110.474 18.1611 110.692C18.1611 110.998 18.2021 111.303 18.2842 111.608C18.3708 111.909 18.4961 112.18 18.6602 112.422C18.8288 112.663 19.0384 112.862 19.2891 113.017C19.5397 113.167 19.8314 113.242 20.1641 113.242ZM18.0654 132.151L21.9141 123.292H16.7598V122.157H23.1855V123.148L19.3916 132.151H18.0654Z"
        fill="#857857" />
    <path
        d="M44.5801 24.2881C44.3112 24.2881 44.0674 24.2585 43.8486 24.1992C43.6299 24.14 43.4316 24.0625 43.2539 23.9668C43.0807 23.8665 42.9258 23.7503 42.7891 23.6182C42.6569 23.486 42.5384 23.347 42.4336 23.2012H42.3516C42.3652 23.3561 42.3789 23.5042 42.3926 23.6455C42.4017 23.764 42.4108 23.887 42.4199 24.0146C42.429 24.1377 42.4336 24.2357 42.4336 24.3086V27.5146H41.1895V16.6455H42.2012L42.3789 17.6572H42.4336C42.5384 17.4977 42.6569 17.3496 42.7891 17.2129C42.9212 17.0716 43.0739 16.9508 43.2471 16.8506C43.4248 16.7458 43.623 16.6637 43.8418 16.6045C44.0605 16.5407 44.3066 16.5088 44.5801 16.5088C45.0085 16.5088 45.3981 16.5908 45.749 16.7549C46.0999 16.9189 46.3984 17.165 46.6445 17.4932C46.8952 17.8167 47.0889 18.2201 47.2256 18.7031C47.3623 19.1862 47.4307 19.7467 47.4307 20.3848C47.4307 21.0273 47.3623 21.5924 47.2256 22.0801C47.0889 22.5632 46.8952 22.9688 46.6445 23.2969C46.3984 23.625 46.0999 23.8734 45.749 24.042C45.3981 24.2061 45.0085 24.2881 44.5801 24.2881ZM44.3408 17.541C43.9945 17.541 43.7005 17.5934 43.459 17.6982C43.222 17.8031 43.0283 17.9626 42.8779 18.1768C42.7321 18.391 42.6227 18.6576 42.5498 18.9766C42.4814 19.2956 42.4427 19.6715 42.4336 20.1045V20.3848C42.4336 20.8451 42.4632 21.2552 42.5225 21.6152C42.5863 21.9707 42.6911 22.2715 42.8369 22.5176C42.9873 22.7591 43.1855 22.9437 43.4316 23.0713C43.6777 23.1943 43.9854 23.2559 44.3545 23.2559C44.9697 23.2559 45.4209 23.0075 45.708 22.5107C45.9997 22.014 46.1455 21.3008 46.1455 20.3711C46.1455 19.4232 45.9997 18.7145 45.708 18.2451C45.4209 17.7757 44.9652 17.541 44.3408 17.541ZM53.904 24.1514L53.6511 23.1123H53.5964C53.446 23.3174 53.2956 23.4951 53.1452 23.6455C52.9948 23.7913 52.8308 23.9121 52.653 24.0078C52.4753 24.1035 52.2771 24.1742 52.0583 24.2197C51.8396 24.2653 51.5866 24.2881 51.2995 24.2881C50.9851 24.2881 50.6957 24.2425 50.4314 24.1514C50.167 24.0648 49.9369 23.9303 49.7409 23.748C49.5495 23.5612 49.3991 23.3288 49.2898 23.0508C49.1804 22.7682 49.1257 22.4355 49.1257 22.0527C49.1257 21.3053 49.3877 20.7311 49.9118 20.3301C50.4405 19.929 51.2426 19.7103 52.3181 19.6738L53.5759 19.626V19.1543C53.5759 18.849 53.5417 18.5938 53.4734 18.3887C53.4096 18.1836 53.3139 18.0195 53.1862 17.8965C53.0632 17.7689 52.9083 17.6777 52.7214 17.623C52.5391 17.5684 52.3295 17.541 52.0925 17.541C51.7142 17.541 51.3611 17.5957 51.0329 17.7051C50.7094 17.8145 50.3972 17.9466 50.0964 18.1016L49.6589 17.165C49.9961 16.9827 50.3721 16.8278 50.7868 16.7002C51.2015 16.5726 51.6368 16.5088 52.0925 16.5088C52.5573 16.5088 52.9584 16.5566 53.2956 16.6523C53.6374 16.7435 53.9177 16.8916 54.1364 17.0967C54.3598 17.2972 54.5261 17.5547 54.6355 17.8691C54.7448 18.1836 54.7995 18.5641 54.7995 19.0107V24.1514H53.904ZM51.6208 23.2832C51.8988 23.2832 52.1563 23.2399 52.3933 23.1533C52.6303 23.0667 52.8353 22.9368 53.0085 22.7637C53.1817 22.5859 53.3161 22.3649 53.4118 22.1006C53.5121 21.8317 53.5622 21.5173 53.5622 21.1572V20.4805L52.5847 20.5283C52.1745 20.5465 51.8305 20.5921 51.5525 20.665C51.2745 20.738 51.0512 20.8405 50.8825 20.9727C50.7185 21.1003 50.6 21.2575 50.5271 21.4443C50.4542 21.6266 50.4177 21.834 50.4177 22.0664C50.4177 22.4857 50.5271 22.7933 50.7458 22.9893C50.9691 23.1852 51.2608 23.2832 51.6208 23.2832ZM60.2612 24.2881C59.8009 24.2881 59.3702 24.2174 58.9692 24.0762C58.5681 23.9303 58.2195 23.7025 57.9233 23.3926C57.6271 23.0781 57.3946 22.6794 57.226 22.1963C57.0574 21.7087 56.9731 21.123 56.9731 20.4395C56.9731 19.724 57.0597 19.1178 57.2329 18.6211C57.406 18.1198 57.643 17.7142 57.9438 17.4043C58.2491 17.0898 58.6046 16.862 59.0102 16.7207C59.4158 16.5794 59.851 16.5088 60.3159 16.5088C60.6713 16.5088 61.0177 16.5475 61.3549 16.625C61.6967 16.7025 61.9815 16.7982 62.2094 16.9121L61.8403 17.9648C61.7355 17.9193 61.6192 17.876 61.4916 17.835C61.364 17.7894 61.2319 17.7507 61.0952 17.7188C60.9584 17.6823 60.824 17.6549 60.6918 17.6367C60.5597 17.6139 60.4343 17.6025 60.3159 17.6025C59.6004 17.6025 59.0786 17.8327 58.7504 18.293C58.4223 18.7487 58.2582 19.4596 58.2582 20.4258C58.2582 21.3874 58.4223 22.0915 58.7504 22.5381C59.0831 22.9801 59.5867 23.2012 60.2612 23.2012C60.6303 23.2012 60.963 23.1602 61.2592 23.0781C61.56 22.9915 61.8334 22.8913 62.0795 22.7773V23.8848C61.8334 24.0169 61.5691 24.1172 61.2866 24.1855C61.0086 24.2539 60.6668 24.2881 60.2612 24.2881ZM65.299 20.2754L66.2218 19.1133L68.2248 16.6455H69.6671L66.9259 19.8926L69.8517 24.1514H68.423L66.1261 20.7061L65.381 21.2666V24.1514H64.1505V13.5146H65.381V18.3955L65.2716 20.2754H65.299ZM75.6073 24.1514L75.3544 23.1123H75.2997C75.1493 23.3174 74.9989 23.4951 74.8485 23.6455C74.6981 23.7913 74.5341 23.9121 74.3563 24.0078C74.1786 24.1035 73.9804 24.1742 73.7616 24.2197C73.5429 24.2653 73.2899 24.2881 73.0028 24.2881C72.6884 24.2881 72.399 24.2425 72.1346 24.1514C71.8703 24.0648 71.6402 23.9303 71.4442 23.748C71.2528 23.5612 71.1024 23.3288 70.993 23.0508C70.8837 22.7682 70.829 22.4355 70.829 22.0527C70.829 21.3053 71.091 20.7311 71.6151 20.3301C72.1438 19.929 72.9458 19.7103 74.0214 19.6738L75.2792 19.626V19.1543C75.2792 18.849 75.245 18.5938 75.1766 18.3887C75.1128 18.1836 75.0171 18.0195 74.8895 17.8965C74.7665 17.7689 74.6115 17.6777 74.4247 17.623C74.2424 17.5684 74.0328 17.541 73.7958 17.541C73.4175 17.541 73.0643 17.5957 72.7362 17.7051C72.4126 17.8145 72.1005 17.9466 71.7997 18.1016L71.3622 17.165C71.6994 16.9827 72.0754 16.8278 72.4901 16.7002C72.9048 16.5726 73.3401 16.5088 73.7958 16.5088C74.2606 16.5088 74.6617 16.5566 74.9989 16.6523C75.3407 16.7435 75.621 16.8916 75.8397 17.0967C76.063 17.2972 76.2294 17.5547 76.3388 17.8691C76.4481 18.1836 76.5028 18.5641 76.5028 19.0107V24.1514H75.6073ZM73.3241 23.2832C73.6021 23.2832 73.8596 23.2399 74.0966 23.1533C74.3335 23.0667 74.5386 22.9368 74.7118 22.7637C74.885 22.5859 75.0194 22.3649 75.1151 22.1006C75.2154 21.8317 75.2655 21.5173 75.2655 21.1572V20.4805L74.288 20.5283C73.8778 20.5465 73.5337 20.5921 73.2557 20.665C72.9777 20.738 72.7544 20.8405 72.5858 20.9727C72.4218 21.1003 72.3033 21.2575 72.2304 21.4443C72.1574 21.6266 72.121 21.834 72.121 22.0664C72.121 22.4857 72.2304 22.7933 72.4491 22.9893C72.6724 23.1852 72.9641 23.2832 73.3241 23.2832ZM84.8766 16.6455V17.418L83.5299 17.6025C83.6575 17.762 83.7646 17.9671 83.8512 18.2178C83.9378 18.4639 83.9811 18.7441 83.9811 19.0586C83.9811 19.4049 83.9264 19.7262 83.817 20.0225C83.7122 20.3141 83.5504 20.5671 83.3316 20.7812C83.1174 20.9954 82.8508 21.1641 82.5318 21.2871C82.2128 21.4056 81.8414 21.4648 81.4176 21.4648C81.3173 21.4648 81.2171 21.4648 81.1168 21.4648C81.0165 21.4603 80.9345 21.4512 80.8707 21.4375C80.7932 21.4831 80.7158 21.5355 80.6383 21.5947C80.5654 21.6494 80.497 21.7132 80.4332 21.7861C80.374 21.859 80.3238 21.9411 80.2828 22.0322C80.2464 22.1234 80.2281 22.2236 80.2281 22.333C80.2281 22.4561 80.2555 22.5563 80.3102 22.6338C80.3648 22.7067 80.4378 22.7637 80.5289 22.8047C80.6246 22.8457 80.7363 22.873 80.8639 22.8867C80.9915 22.9004 81.1259 22.9072 81.2672 22.9072H82.4703C82.8941 22.9072 83.2519 22.9619 83.5436 23.0713C83.8352 23.1761 84.0722 23.3197 84.2545 23.502C84.4413 23.6842 84.5758 23.9007 84.6578 24.1514C84.7398 24.3975 84.7809 24.6595 84.7809 24.9375C84.7809 25.3385 84.7057 25.6986 84.5553 26.0176C84.4094 26.3366 84.1839 26.6055 83.8785 26.8242C83.5732 27.0475 83.1858 27.2184 82.7164 27.3369C82.2516 27.4554 81.7024 27.5146 81.0689 27.5146C80.5813 27.5146 80.1552 27.4668 79.7906 27.3711C79.426 27.2754 79.123 27.1364 78.8814 26.9541C78.6399 26.7718 78.4576 26.5508 78.3346 26.291C78.2161 26.0358 78.1568 25.7464 78.1568 25.4229C78.1568 25.1494 78.2001 24.9079 78.2867 24.6982C78.3779 24.4932 78.4986 24.3154 78.649 24.165C78.7994 24.0146 78.9726 23.8916 79.1686 23.7959C79.3691 23.7002 79.5764 23.6273 79.7906 23.5771C79.5992 23.4906 79.442 23.3538 79.3189 23.167C79.1959 22.9801 79.1344 22.766 79.1344 22.5244C79.1344 22.2464 79.2073 22.0072 79.3531 21.8066C79.499 21.6016 79.7291 21.4033 80.0436 21.2119C79.8476 21.1299 79.6676 21.0182 79.5035 20.877C79.344 20.7311 79.2073 20.5671 79.0934 20.3848C78.984 20.1979 78.8974 19.9951 78.8336 19.7764C78.7744 19.5576 78.7447 19.332 78.7447 19.0996C78.7447 18.694 78.8017 18.3317 78.9156 18.0127C79.0296 17.6937 79.1982 17.4225 79.4215 17.1992C79.6448 16.9759 79.9228 16.805 80.2555 16.6865C80.5882 16.568 80.9755 16.5088 81.4176 16.5088C81.5862 16.5088 81.7594 16.5225 81.9371 16.5498C82.1194 16.5726 82.2721 16.6045 82.3951 16.6455H84.8766ZM79.3326 25.3818C79.3326 25.5505 79.3622 25.7077 79.4215 25.8535C79.4807 25.9993 79.5764 26.1247 79.7086 26.2295C79.8453 26.3343 80.023 26.4163 80.2418 26.4756C80.4651 26.5394 80.7408 26.5713 81.0689 26.5713C81.9166 26.5713 82.5501 26.4391 82.9693 26.1748C83.3932 25.915 83.6051 25.5391 83.6051 25.0469C83.6051 24.8372 83.5777 24.6663 83.523 24.5342C83.4684 24.402 83.3772 24.2972 83.2496 24.2197C83.1266 24.1468 82.9625 24.0967 82.7574 24.0693C82.5523 24.042 82.3017 24.0283 82.0055 24.0283H80.8023C80.6428 24.0283 80.4765 24.0465 80.3033 24.083C80.1301 24.1195 79.9706 24.1878 79.8248 24.2881C79.6835 24.3883 79.565 24.5251 79.4693 24.6982C79.3782 24.876 79.3326 25.1038 79.3326 25.3818ZM79.9615 19.0586C79.9615 19.5827 80.0846 19.9723 80.3307 20.2275C80.5768 20.4827 80.9254 20.6104 81.3766 20.6104C81.8323 20.6104 82.1764 20.485 82.4088 20.2344C82.6458 19.9792 82.7643 19.5804 82.7643 19.0381C82.7643 18.4775 82.6435 18.0651 82.402 17.8008C82.165 17.5365 81.8186 17.4043 81.3629 17.4043C80.9117 17.4043 80.5654 17.541 80.3238 17.8145C80.0823 18.0879 79.9615 18.5026 79.9615 19.0586ZM89.5999 24.2881C89.0986 24.2881 88.6406 24.2038 88.2259 24.0352C87.8112 23.8665 87.4534 23.6204 87.1527 23.2969C86.8564 22.9733 86.6263 22.5723 86.4622 22.0938C86.2982 21.6152 86.2161 21.0684 86.2161 20.4531C86.2161 19.8333 86.2913 19.2796 86.4417 18.792C86.5921 18.3044 86.804 17.8919 87.0775 17.5547C87.3509 17.2129 87.6767 16.9531 88.055 16.7754C88.4378 16.5977 88.8594 16.5088 89.3196 16.5088C89.7708 16.5088 90.1764 16.5908 90.5364 16.7549C90.8965 16.9144 91.2018 17.1423 91.4525 17.4385C91.7031 17.7301 91.8945 18.0833 92.0267 18.498C92.1634 18.9082 92.2318 19.3639 92.2318 19.8652V20.6377H87.5013C87.5241 21.5173 87.7086 22.1644 88.055 22.5791C88.4059 22.9938 88.9254 23.2012 89.6136 23.2012C89.846 23.2012 90.0602 23.1898 90.2562 23.167C90.4567 23.1442 90.6481 23.1123 90.8304 23.0713C91.0172 23.0257 91.1973 22.971 91.3704 22.9072C91.5436 22.8389 91.7191 22.7637 91.8968 22.6816V23.7891C91.7145 23.8757 91.5345 23.9508 91.3568 24.0146C91.1836 24.0785 91.0036 24.1309 90.8167 24.1719C90.6344 24.2129 90.443 24.2425 90.2425 24.2607C90.0465 24.279 89.8323 24.2881 89.5999 24.2881ZM89.2923 17.541C88.7728 17.541 88.3603 17.7188 88.055 18.0742C87.7542 18.4297 87.5788 18.9469 87.5286 19.626H90.8919C90.8919 19.3161 90.86 19.0335 90.7962 18.7783C90.737 18.5186 90.6413 18.2975 90.5091 18.1152C90.3815 17.9329 90.2174 17.7917 90.0169 17.6914C89.8164 17.5911 89.5749 17.541 89.2923 17.541ZM107.311 24.1514V19.3184C107.311 18.7259 107.197 18.2816 106.969 17.9854C106.742 17.6891 106.388 17.541 105.91 17.541C105.577 17.541 105.295 17.5957 105.062 17.7051C104.83 17.8099 104.638 17.9671 104.488 18.1768C104.342 18.3818 104.235 18.6393 104.167 18.9492C104.098 19.2546 104.064 19.6077 104.064 20.0088V24.1514H102.813V19.3184C102.813 18.7259 102.699 18.2816 102.471 17.9854C102.248 17.6891 101.897 17.541 101.419 17.541C101.068 17.541 100.774 17.6003 100.537 17.7188C100.3 17.8372 100.108 18.0127 99.9627 18.2451C99.8214 18.4775 99.7188 18.7624 99.655 19.0996C99.5958 19.4368 99.5662 19.8242 99.5662 20.2617V24.1514H98.322V16.6455H99.3338L99.5115 17.6572H99.5798C99.6892 17.4613 99.8191 17.2926 99.9695 17.1514C100.12 17.0055 100.284 16.8848 100.462 16.7891C100.644 16.6934 100.835 16.6227 101.036 16.5771C101.241 16.5316 101.448 16.5088 101.658 16.5088C102.205 16.5088 102.658 16.609 103.018 16.8096C103.383 17.0101 103.652 17.3245 103.825 17.7529H103.88C103.998 17.5387 104.139 17.3542 104.303 17.1992C104.472 17.0443 104.654 16.9167 104.85 16.8164C105.051 16.7116 105.261 16.6341 105.479 16.584C105.698 16.5339 105.921 16.5088 106.149 16.5088C106.947 16.5088 107.546 16.7275 107.947 17.165C108.353 17.598 108.555 18.293 108.555 19.25V24.1514H107.311ZM112.397 24.1514H111.153V16.6455H112.397V24.1514ZM111.057 14.6152C111.057 14.3418 111.125 14.1436 111.262 14.0205C111.403 13.8975 111.577 13.8359 111.782 13.8359C111.882 13.8359 111.975 13.8519 112.062 13.8838C112.153 13.9111 112.231 13.9567 112.294 14.0205C112.363 14.0843 112.415 14.1663 112.452 14.2666C112.493 14.3623 112.513 14.4785 112.513 14.6152C112.513 14.8796 112.44 15.0778 112.294 15.21C112.153 15.3376 111.982 15.4014 111.782 15.4014C111.577 15.4014 111.403 15.3376 111.262 15.21C111.125 15.0824 111.057 14.8841 111.057 14.6152ZM119.287 24.1514L119.034 23.1123H118.98C118.829 23.3174 118.679 23.4951 118.529 23.6455C118.378 23.7913 118.214 23.9121 118.036 24.0078C117.859 24.1035 117.66 24.1742 117.442 24.2197C117.223 24.2653 116.97 24.2881 116.683 24.2881C116.368 24.2881 116.079 24.2425 115.815 24.1514C115.55 24.0648 115.32 23.9303 115.124 23.748C114.933 23.5612 114.782 23.3288 114.673 23.0508C114.564 22.7682 114.509 22.4355 114.509 22.0527C114.509 21.3053 114.771 20.7311 115.295 20.3301C115.824 19.929 116.626 19.7103 117.701 19.6738L118.959 19.626V19.1543C118.959 18.849 118.925 18.5938 118.857 18.3887C118.793 18.1836 118.697 18.0195 118.57 17.8965C118.446 17.7689 118.292 17.6777 118.105 17.623C117.922 17.5684 117.713 17.541 117.476 17.541C117.098 17.541 116.744 17.5957 116.416 17.7051C116.093 17.8145 115.78 17.9466 115.48 18.1016L115.042 17.165C115.379 16.9827 115.755 16.8278 116.17 16.7002C116.585 16.5726 117.02 16.5088 117.476 16.5088C117.941 16.5088 118.342 16.5566 118.679 16.6523C119.021 16.7435 119.301 16.8916 119.52 17.0967C119.743 17.2972 119.909 17.5547 120.019 17.8691C120.128 18.1836 120.183 18.5641 120.183 19.0107V24.1514H119.287ZM117.004 23.2832C117.282 23.2832 117.54 23.2399 117.777 23.1533C118.014 23.0667 118.219 22.9368 118.392 22.7637C118.565 22.5859 118.699 22.3649 118.795 22.1006C118.895 21.8317 118.946 21.5173 118.946 21.1572V20.4805L117.968 20.5283C117.558 20.5465 117.214 20.5921 116.936 20.665C116.658 20.738 116.434 20.8405 116.266 20.9727C116.102 21.1003 115.983 21.2575 115.91 21.4443C115.837 21.6266 115.801 21.834 115.801 22.0664C115.801 22.4857 115.91 22.7933 116.129 22.9893C116.352 23.1852 116.644 23.2832 117.004 23.2832ZM127.463 24.1514V19.3184C127.463 18.7259 127.342 18.2816 127.101 17.9854C126.864 17.6891 126.49 17.541 125.979 17.541C125.61 17.541 125.3 17.6003 125.05 17.7188C124.799 17.8372 124.596 18.0127 124.441 18.2451C124.291 18.4775 124.182 18.7624 124.113 19.0996C124.049 19.4368 124.018 19.8242 124.018 20.2617V24.1514H122.773V16.6455H123.785L123.963 17.6572H124.031C124.145 17.4613 124.28 17.2926 124.434 17.1514C124.594 17.0055 124.767 16.8848 124.954 16.7891C125.141 16.6934 125.339 16.6227 125.549 16.5771C125.758 16.5316 125.973 16.5088 126.191 16.5088C127.025 16.5088 127.652 16.7275 128.071 17.165C128.495 17.598 128.707 18.293 128.707 19.25V24.1514H127.463ZM42.4336 60.1514H41.1895V52.6455H42.4336V60.1514ZM41.0938 50.6152C41.0938 50.3418 41.1621 50.1436 41.2988 50.0205C41.4401 49.8975 41.6133 49.8359 41.8184 49.8359C41.9186 49.8359 42.012 49.8519 42.0986 49.8838C42.1898 49.9111 42.2673 49.9567 42.3311 50.0205C42.3994 50.0843 42.4518 50.1663 42.4883 50.2666C42.5293 50.3623 42.5498 50.4785 42.5498 50.6152C42.5498 50.8796 42.4769 51.0778 42.3311 51.21C42.1898 51.3376 42.0189 51.4014 41.8184 51.4014C41.6133 51.4014 41.4401 51.3376 41.2988 51.21C41.1621 51.0824 41.0938 50.8841 41.0938 50.6152ZM54.0818 60.1514V55.3184C54.0818 54.7259 53.9678 54.2816 53.74 53.9854C53.5121 53.6891 53.1589 53.541 52.6804 53.541C52.3477 53.541 52.0652 53.5957 51.8327 53.7051C51.6003 53.8099 51.4089 53.9671 51.2585 54.1768C51.1127 54.3818 51.0056 54.6393 50.9372 54.9492C50.8689 55.2546 50.8347 55.6077 50.8347 56.0088V60.1514H49.5837V55.3184C49.5837 54.7259 49.4698 54.2816 49.2419 53.9854C49.0186 53.6891 48.6677 53.541 48.1892 53.541C47.8383 53.541 47.5443 53.6003 47.3073 53.7188C47.0704 53.8372 46.879 54.0127 46.7331 54.2451C46.5918 54.4775 46.4893 54.7624 46.4255 55.0996C46.3663 55.4368 46.3366 55.8242 46.3366 56.2617V60.1514H45.0925V52.6455H46.1042L46.282 53.6572H46.3503C46.4597 53.4613 46.5896 53.2926 46.74 53.1514C46.8904 53.0055 47.0544 52.8848 47.2321 52.7891C47.4144 52.6934 47.6058 52.6227 47.8064 52.5771C48.0114 52.5316 48.2188 52.5088 48.4284 52.5088C48.9753 52.5088 49.4288 52.609 49.7888 52.8096C50.1534 53.0101 50.4223 53.3245 50.5954 53.7529H50.6501C50.7686 53.5387 50.9099 53.3542 51.0739 53.1992C51.2426 53.0443 51.4249 52.9167 51.6208 52.8164C51.8213 52.7116 52.031 52.6341 52.2497 52.584C52.4685 52.5339 52.6918 52.5088 52.9196 52.5088C53.7172 52.5088 54.3165 52.7275 54.7175 53.165C55.1231 53.598 55.3259 54.293 55.3259 55.25V60.1514H54.0818ZM61.3139 60.2881C61.045 60.2881 60.8012 60.2585 60.5825 60.1992C60.3637 60.14 60.1655 60.0625 59.9877 59.9668C59.8146 59.8665 59.6596 59.7503 59.5229 59.6182C59.3907 59.486 59.2722 59.347 59.1674 59.2012H59.0854C59.0991 59.3561 59.1127 59.5042 59.1264 59.6455C59.1355 59.764 59.1446 59.887 59.1537 60.0146C59.1629 60.1377 59.1674 60.2357 59.1674 60.3086V63.5146H57.9233V52.6455H58.935L59.1127 53.6572H59.1674C59.2722 53.4977 59.3907 53.3496 59.5229 53.2129C59.6551 53.0716 59.8077 52.9508 59.9809 52.8506C60.1586 52.7458 60.3569 52.6637 60.5756 52.6045C60.7944 52.5407 61.0405 52.5088 61.3139 52.5088C61.7423 52.5088 62.1319 52.5908 62.4829 52.7549C62.8338 52.9189 63.1323 53.165 63.3784 53.4932C63.629 53.8167 63.8227 54.2201 63.9594 54.7031C64.0961 55.1862 64.1645 55.7467 64.1645 56.3848C64.1645 57.0273 64.0961 57.5924 63.9594 58.0801C63.8227 58.5632 63.629 58.9688 63.3784 59.2969C63.1323 59.625 62.8338 59.8734 62.4829 60.042C62.1319 60.2061 61.7423 60.2881 61.3139 60.2881ZM61.0746 53.541C60.7283 53.541 60.4343 53.5934 60.1928 53.6982C59.9558 53.8031 59.7621 53.9626 59.6118 54.1768C59.4659 54.391 59.3565 54.6576 59.2836 54.9766C59.2153 55.2956 59.1765 55.6715 59.1674 56.1045V56.3848C59.1674 56.8451 59.197 57.2552 59.2563 57.6152C59.3201 57.9707 59.4249 58.2715 59.5707 58.5176C59.7211 58.7591 59.9194 58.9437 60.1655 59.0713C60.4116 59.1943 60.7192 59.2559 61.0883 59.2559C61.7036 59.2559 62.1547 59.0075 62.4418 58.5107C62.7335 58.014 62.8793 57.3008 62.8793 56.3711C62.8793 55.4232 62.7335 54.7145 62.4418 54.2451C62.1547 53.7757 61.699 53.541 61.0746 53.541ZM72.5246 56.3848C72.5246 57.0091 72.4471 57.5651 72.2921 58.0527C72.1418 58.5358 71.923 58.9437 71.6359 59.2764C71.3533 59.6045 71.0093 59.8551 70.6037 60.0283C70.1981 60.2015 69.7423 60.2881 69.2365 60.2881C68.7671 60.2881 68.3341 60.2015 67.9377 60.0283C67.5412 59.8551 67.1971 59.6045 66.9054 59.2764C66.6183 58.9437 66.3927 58.5358 66.2287 58.0527C66.0692 57.5651 65.9894 57.0091 65.9894 56.3848C65.9894 55.765 66.0646 55.2158 66.215 54.7373C66.3699 54.2542 66.5887 53.8486 66.8713 53.5205C67.1538 53.1878 67.4979 52.9372 67.9035 52.7686C68.3136 52.5954 68.7716 52.5088 69.2775 52.5088C69.7469 52.5088 70.1798 52.5954 70.5763 52.7686C70.9728 52.9372 71.3146 53.1878 71.6017 53.5205C71.8934 53.8486 72.119 54.2542 72.2785 54.7373C72.4425 55.2158 72.5246 55.765 72.5246 56.3848ZM67.2746 56.3848C67.2746 57.3372 67.4295 58.055 67.7394 58.5381C68.0539 59.0166 68.562 59.2559 69.2638 59.2559C69.9657 59.2559 70.4692 59.0166 70.7746 58.5381C71.0845 58.055 71.2394 57.3372 71.2394 56.3848C71.2394 55.4323 71.0822 54.7214 70.7677 54.252C70.4578 53.778 69.952 53.541 69.2502 53.541C68.5483 53.541 68.0425 53.778 67.7326 54.252C67.4272 54.7214 67.2746 55.4323 67.2746 56.3848ZM78.0136 52.5088C78.1457 52.5088 78.2938 52.5156 78.4579 52.5293C78.622 52.5384 78.7632 52.5544 78.8817 52.5771L78.7177 53.7256C78.5901 53.7028 78.4579 53.6846 78.3212 53.6709C78.189 53.6527 78.0637 53.6436 77.9452 53.6436C77.6581 53.6436 77.396 53.7028 77.1591 53.8213C76.9221 53.9352 76.717 54.1016 76.5438 54.3203C76.3752 54.5345 76.243 54.7943 76.1473 55.0996C76.0562 55.4004 76.0106 55.7354 76.0106 56.1045V60.1514H74.7665V52.6455H75.7782L75.9286 54.0195H75.9833C76.0972 53.8236 76.218 53.6344 76.3456 53.4521C76.4777 53.2699 76.6236 53.1104 76.7831 52.9736C76.9471 52.8324 77.1294 52.7207 77.33 52.6387C77.5305 52.5521 77.7583 52.5088 78.0136 52.5088ZM82.9078 59.2695C82.9898 59.2695 83.081 59.265 83.1813 59.2559C83.2861 59.2467 83.3863 59.2354 83.482 59.2217C83.5777 59.208 83.6643 59.1921 83.7418 59.1738C83.8238 59.1556 83.8854 59.1396 83.9264 59.126V60.0693C83.8671 60.0967 83.7919 60.124 83.7008 60.1514C83.6096 60.1787 83.5094 60.2015 83.4 60.2197C83.2906 60.2425 83.1767 60.2585 83.0582 60.2676C82.9397 60.2812 82.8235 60.2881 82.7096 60.2881C82.427 60.2881 82.165 60.2516 81.9234 60.1787C81.6819 60.1058 81.4723 59.9805 81.2945 59.8027C81.1214 59.625 80.9846 59.3857 80.8844 59.085C80.7841 58.7796 80.734 58.3968 80.734 57.9365V53.582H79.6744V53.0283L80.734 52.4951L81.2672 50.9229H81.985V52.6455H83.8717V53.582H81.985V57.9365C81.985 58.3786 82.0556 58.7113 82.1969 58.9346C82.3427 59.1579 82.5797 59.2695 82.9078 59.2695ZM91.2745 53.582L91.1787 53.4316C91.2426 53.1855 91.3177 52.9235 91.4043 52.6455C91.4955 52.3675 91.5935 52.0872 91.6983 51.8047C91.8031 51.5221 91.9148 51.2419 92.0332 50.9639C92.1517 50.6813 92.2679 50.4124 92.3819 50.1572H93.3184C93.25 50.4352 93.1817 50.7246 93.1133 51.0254C93.0495 51.3262 92.988 51.627 92.9287 51.9277C92.8695 52.224 92.8148 52.5133 92.7647 52.7959C92.7146 53.0785 92.6713 53.3405 92.6348 53.582H91.2745ZM88.6426 53.582L88.5469 53.4316C88.6107 53.1855 88.6859 52.9235 88.7725 52.6455C88.8636 52.3675 88.9616 52.0872 89.0664 51.8047C89.1713 51.5221 89.2829 51.2419 89.4014 50.9639C89.5199 50.6813 89.6361 50.4124 89.75 50.1572H90.6866C90.6182 50.4352 90.5498 50.7246 90.4815 51.0254C90.4177 51.3262 90.3562 51.627 90.2969 51.9277C90.2377 52.224 90.183 52.5133 90.1329 52.7959C90.0827 53.0785 90.0394 53.3405 90.003 53.582H88.6426ZM98.2058 53.582H96.531V60.1514H95.28V53.582H93.9539V53.0693L95.28 52.6045V51.9482C95.28 51.4606 95.3302 51.0573 95.4304 50.7383C95.5352 50.4147 95.6834 50.1572 95.8748 49.9658C96.0707 49.7744 96.31 49.64 96.5925 49.5625C96.8751 49.4805 97.1941 49.4395 97.5496 49.4395C97.8185 49.4395 98.0645 49.4668 98.2879 49.5215C98.5157 49.5716 98.7185 49.6286 98.8963 49.6924L98.575 50.6562C98.4337 50.6061 98.2787 50.5628 98.1101 50.5264C97.9461 50.4854 97.7729 50.4648 97.5906 50.4648C97.4083 50.4648 97.2511 50.4876 97.1189 50.5332C96.9867 50.5742 96.8774 50.6494 96.7908 50.7588C96.7042 50.8682 96.6381 51.0186 96.5925 51.21C96.5515 51.3968 96.531 51.6383 96.531 51.9346V52.6455H98.2058V53.582ZM108.822 60.1514V55.3184C108.822 54.7259 108.708 54.2816 108.48 53.9854C108.252 53.6891 107.899 53.541 107.42 53.541C107.088 53.541 106.805 53.5957 106.573 53.7051C106.34 53.8099 106.149 53.9671 105.999 54.1768C105.853 54.3818 105.746 54.6393 105.677 54.9492C105.609 55.2546 105.575 55.6077 105.575 56.0088V60.1514H104.324V55.3184C104.324 54.7259 104.21 54.2816 103.982 53.9854C103.759 53.6891 103.408 53.541 102.929 53.541C102.578 53.541 102.284 53.6003 102.047 53.7188C101.81 53.8372 101.619 54.0127 101.473 54.2451C101.332 54.4775 101.229 54.7624 101.166 55.0996C101.106 55.4368 101.077 55.8242 101.077 56.2617V60.1514H99.8325V52.6455H100.844L101.022 53.6572H101.09C101.2 53.4613 101.33 53.2926 101.48 53.1514C101.63 53.0055 101.794 52.8848 101.972 52.7891C102.154 52.6934 102.346 52.6227 102.546 52.5771C102.751 52.5316 102.959 52.5088 103.168 52.5088C103.715 52.5088 104.169 52.609 104.529 52.8096C104.893 53.0101 105.162 53.3245 105.335 53.7529H105.39C105.509 53.5387 105.65 53.3542 105.814 53.1992C105.983 53.0443 106.165 52.9167 106.361 52.8164C106.561 52.7116 106.771 52.6341 106.99 52.584C107.208 52.5339 107.432 52.5088 107.66 52.5088C108.457 52.5088 109.056 52.7275 109.458 53.165C109.863 53.598 110.066 54.293 110.066 55.25V60.1514H108.822ZM114.933 59.2695C115.015 59.2695 115.106 59.265 115.206 59.2559C115.311 59.2467 115.411 59.2354 115.507 59.2217C115.603 59.208 115.689 59.1921 115.767 59.1738C115.849 59.1556 115.91 59.1396 115.951 59.126V60.0693C115.892 60.0967 115.817 60.124 115.726 60.1514C115.635 60.1787 115.534 60.2015 115.425 60.2197C115.316 60.2425 115.202 60.2585 115.083 60.2676C114.965 60.2812 114.849 60.2881 114.735 60.2881C114.452 60.2881 114.19 60.2516 113.948 60.1787C113.707 60.1058 113.497 59.9805 113.32 59.8027C113.146 59.625 113.01 59.3857 112.909 59.085C112.809 58.7796 112.759 58.3968 112.759 57.9365V53.582H111.699V53.0283L112.759 52.4951L113.292 50.9229H114.01V52.6455H115.897V53.582H114.01V57.9365C114.01 58.3786 114.081 58.7113 114.222 58.9346C114.368 59.1579 114.605 59.2695 114.933 59.2695ZM119.26 50.1572L119.355 50.3076C119.292 50.5583 119.214 50.8226 119.123 51.1006C119.036 51.374 118.938 51.6543 118.829 51.9414C118.724 52.224 118.613 52.5042 118.494 52.7822C118.38 53.0602 118.266 53.3268 118.152 53.582H117.216C117.28 53.3086 117.343 53.0215 117.407 52.7207C117.476 52.4199 117.539 52.1191 117.599 51.8184C117.662 51.5176 117.719 51.2259 117.769 50.9434C117.82 50.6608 117.863 50.3988 117.899 50.1572H119.26ZM121.892 50.1572L121.987 50.3076C121.923 50.5583 121.846 50.8226 121.755 51.1006C121.668 51.374 121.57 51.6543 121.461 51.9414C121.356 52.224 121.244 52.5042 121.126 52.7822C121.012 53.0602 120.898 53.3268 120.784 53.582H119.848C119.911 53.3086 119.975 53.0215 120.039 52.7207C120.107 52.4199 120.171 52.1191 120.23 51.8184C120.294 51.5176 120.351 51.2259 120.401 50.9434C120.451 50.6608 120.495 50.3988 120.531 50.1572H121.892ZM44.4502 89.582H42.7754V96.1514H41.5244V89.582H40.1982V89.0693L41.5244 88.6045V87.9482C41.5244 87.4606 41.5745 87.0573 41.6748 86.7383C41.7796 86.4147 41.9277 86.1572 42.1191 85.9658C42.3151 85.7744 42.5544 85.64 42.8369 85.5625C43.1195 85.4805 43.4385 85.4395 43.7939 85.4395C44.0628 85.4395 44.3089 85.4668 44.5322 85.5215C44.7601 85.5716 44.9629 85.6286 45.1406 85.6924L44.8193 86.6562C44.6781 86.6061 44.5231 86.5628 44.3545 86.5264C44.1904 86.4854 44.0173 86.4648 43.835 86.4648C43.6527 86.4648 43.4954 86.4876 43.3633 86.5332C43.2311 86.5742 43.1217 86.6494 43.0352 86.7588C42.9486 86.8682 42.8825 87.0186 42.8369 87.21C42.7959 87.3968 42.7754 87.6383 42.7754 87.9346V88.6455H44.4502V89.582ZM50.9372 96.1514L50.7527 95.1465H50.6843C50.5704 95.3424 50.4336 95.5133 50.2741 95.6592C50.1192 95.8005 49.9483 95.9189 49.7614 96.0146C49.5746 96.1058 49.3764 96.1742 49.1667 96.2197C48.9571 96.2653 48.7429 96.2881 48.5241 96.2881C48.1094 96.2881 47.7448 96.2357 47.4304 96.1309C47.1159 96.026 46.8539 95.862 46.6443 95.6387C46.4346 95.4154 46.2751 95.1305 46.1657 94.7842C46.0609 94.4378 46.0085 94.0254 46.0085 93.5469V88.6455H47.2527V93.4785C47.2527 94.071 47.3734 94.5153 47.615 94.8115C47.8565 95.1077 48.2302 95.2559 48.7361 95.2559C49.1052 95.2559 49.4151 95.1966 49.6657 95.0781C49.9164 94.9596 50.1169 94.7865 50.2673 94.5586C50.4223 94.3262 50.5316 94.0413 50.5954 93.7041C50.6638 93.3669 50.698 92.9795 50.698 92.542V88.6455H51.9421V96.1514H50.9372ZM59.2905 96.1514V91.3184C59.2905 90.7259 59.1697 90.2816 58.9282 89.9854C58.6912 89.6891 58.3175 89.541 57.8071 89.541C57.4379 89.541 57.128 89.6003 56.8774 89.7188C56.6267 89.8372 56.4239 90.0127 56.269 90.2451C56.1186 90.4775 56.0092 90.7624 55.9409 91.0996C55.8771 91.4368 55.8452 91.8242 55.8452 92.2617V96.1514H54.601V88.6455H55.6127L55.7905 89.6572H55.8588C55.9728 89.4613 56.1072 89.2926 56.2621 89.1514C56.4217 89.0055 56.5948 88.8848 56.7817 88.7891C56.9685 88.6934 57.1668 88.6227 57.3764 88.5771C57.586 88.5316 57.8002 88.5088 58.019 88.5088C58.853 88.5088 59.4796 88.7275 59.8989 89.165C60.3227 89.598 60.5346 90.293 60.5346 91.25V96.1514H59.2905ZM65.9963 96.2881C65.536 96.2881 65.1053 96.2174 64.7043 96.0762C64.3032 95.9303 63.9546 95.7025 63.6584 95.3926C63.3621 95.0781 63.1297 94.6794 62.9611 94.1963C62.7925 93.7087 62.7082 93.123 62.7082 92.4395C62.7082 91.724 62.7948 91.1178 62.9679 90.6211C63.1411 90.1198 63.3781 89.7142 63.6789 89.4043C63.9842 89.0898 64.3397 88.862 64.7453 88.7207C65.1509 88.5794 65.5861 88.5088 66.0509 88.5088C66.4064 88.5088 66.7528 88.5475 67.09 88.625C67.4318 88.7025 67.7166 88.7982 67.9445 88.9121L67.5754 89.9648C67.4705 89.9193 67.3543 89.876 67.2267 89.835C67.0991 89.7894 66.967 89.7507 66.8302 89.7188C66.6935 89.6823 66.5591 89.6549 66.4269 89.6367C66.2948 89.6139 66.1694 89.6025 66.0509 89.6025C65.3354 89.6025 64.8136 89.8327 64.4855 90.293C64.1574 90.7487 63.9933 91.4596 63.9933 92.4258C63.9933 93.3874 64.1574 94.0915 64.4855 94.5381C64.8182 94.9801 65.3218 95.2012 65.9963 95.2012C66.3654 95.2012 66.6981 95.1602 66.9943 95.0781C67.2951 94.9915 67.5685 94.8913 67.8146 94.7773V95.8848C67.5685 96.0169 67.3042 96.1172 67.0216 96.1855C66.7436 96.2539 66.4018 96.2881 65.9963 96.2881ZM82.7916 96.1514V91.3184C82.7916 90.7259 82.6777 90.2816 82.4498 89.9854C82.2219 89.6891 81.8688 89.541 81.3902 89.541C81.0576 89.541 80.775 89.5957 80.5426 89.7051C80.3102 89.8099 80.1188 89.9671 79.9684 90.1768C79.8225 90.3818 79.7154 90.6393 79.6471 90.9492C79.5787 91.2546 79.5445 91.6077 79.5445 92.0088V96.1514H78.2936V91.3184C78.2936 90.7259 78.1796 90.2816 77.9518 89.9854C77.7285 89.6891 77.3775 89.541 76.899 89.541C76.5481 89.541 76.2542 89.6003 76.0172 89.7188C75.7802 89.8372 75.5888 90.0127 75.443 90.2451C75.3017 90.4775 75.1992 90.7624 75.1354 91.0996C75.0761 91.4368 75.0465 91.8242 75.0465 92.2617V96.1514H73.8023V88.6455H74.8141L74.9918 89.6572H75.0602C75.1695 89.4613 75.2994 89.2926 75.4498 89.1514C75.6002 89.0055 75.7643 88.8848 75.942 88.7891C76.1243 88.6934 76.3157 88.6227 76.5162 88.5771C76.7213 88.5316 76.9286 88.5088 77.1383 88.5088C77.6852 88.5088 78.1386 88.609 78.4986 88.8096C78.8632 89.0101 79.1321 89.3245 79.3053 89.7529H79.36C79.4785 89.5387 79.6197 89.3542 79.7838 89.1992C79.9524 89.0443 80.1347 88.9167 80.3307 88.8164C80.5312 88.7116 80.7408 88.6341 80.9596 88.584C81.1783 88.5339 81.4016 88.5088 81.6295 88.5088C82.427 88.5088 83.0263 88.7275 83.4273 89.165C83.8329 89.598 84.0357 90.293 84.0357 91.25V96.1514H82.7916ZM90.8646 96.1514L90.6116 95.1123H90.557C90.4066 95.3174 90.2562 95.4951 90.1058 95.6455C89.9554 95.7913 89.7913 95.9121 89.6136 96.0078C89.4359 96.1035 89.2376 96.1742 89.0189 96.2197C88.8001 96.2653 88.5472 96.2881 88.2601 96.2881C87.9456 96.2881 87.6562 96.2425 87.3919 96.1514C87.1276 96.0648 86.8974 95.9303 86.7015 95.748C86.5101 95.5612 86.3597 95.3288 86.2503 95.0508C86.1409 94.7682 86.0863 94.4355 86.0863 94.0527C86.0863 93.3053 86.3483 92.7311 86.8724 92.3301C87.401 91.929 88.2031 91.7103 89.2786 91.6738L90.5364 91.626V91.1543C90.5364 90.849 90.5023 90.5938 90.4339 90.3887C90.3701 90.1836 90.2744 90.0195 90.1468 89.8965C90.0238 89.7689 89.8688 89.6777 89.682 89.623C89.4997 89.5684 89.29 89.541 89.053 89.541C88.6748 89.541 88.3216 89.5957 87.9935 89.7051C87.6699 89.8145 87.3577 89.9466 87.057 90.1016L86.6195 89.165C86.9567 88.9827 87.3327 88.8278 87.7474 88.7002C88.1621 88.5726 88.5973 88.5088 89.053 88.5088C89.5179 88.5088 89.9189 88.5566 90.2562 88.6523C90.598 88.7435 90.8782 88.8916 91.097 89.0967C91.3203 89.2972 91.4866 89.5547 91.596 89.8691C91.7054 90.1836 91.7601 90.5641 91.7601 91.0107V96.1514H90.8646ZM88.5814 95.2832C88.8594 95.2832 89.1168 95.2399 89.3538 95.1533C89.5908 95.0667 89.7959 94.9368 89.9691 94.7637C90.1422 94.5859 90.2767 94.3649 90.3724 94.1006C90.4726 93.8317 90.5228 93.5173 90.5228 93.1572V92.4805L89.5452 92.5283C89.1351 92.5465 88.791 92.5921 88.513 92.665C88.235 92.738 88.0117 92.8405 87.8431 92.9727C87.679 93.1003 87.5605 93.2575 87.4876 93.4443C87.4147 93.6266 87.3782 93.834 87.3782 94.0664C87.3782 94.4857 87.4876 94.7933 87.7064 94.9893C87.9297 95.1852 88.2213 95.2832 88.5814 95.2832ZM95.5948 96.1514H94.3506V88.6455H95.5948V96.1514ZM94.2549 86.6152C94.2549 86.3418 94.3233 86.1436 94.46 86.0205C94.6013 85.8975 94.7745 85.8359 94.9795 85.8359C95.0798 85.8359 95.1732 85.8519 95.2598 85.8838C95.3509 85.9111 95.4284 85.9567 95.4922 86.0205C95.5606 86.0843 95.613 86.1663 95.6495 86.2666C95.6905 86.3623 95.711 86.4785 95.711 86.6152C95.711 86.8796 95.6381 87.0778 95.4922 87.21C95.3509 87.3376 95.1801 87.4014 94.9795 87.4014C94.7745 87.4014 94.6013 87.3376 94.46 87.21C94.3233 87.0824 94.2549 86.8841 94.2549 86.6152ZM102.943 96.1514V91.3184C102.943 90.7259 102.822 90.2816 102.581 89.9854C102.344 89.6891 101.97 89.541 101.46 89.541C101.091 89.541 100.781 89.6003 100.53 89.7188C100.279 89.8372 100.077 90.0127 99.9216 90.2451C99.7713 90.4775 99.6619 90.7624 99.5935 91.0996C99.5297 91.4368 99.4978 91.8242 99.4978 92.2617V96.1514H98.2537V88.6455H99.2654L99.4431 89.6572H99.5115C99.6254 89.4613 99.7599 89.2926 99.9148 89.1514C100.074 89.0055 100.247 88.8848 100.434 88.7891C100.621 88.6934 100.819 88.6227 101.029 88.5771C101.239 88.5316 101.453 88.5088 101.672 88.5088C102.506 88.5088 103.132 88.7275 103.552 89.165C103.975 89.598 104.187 90.293 104.187 91.25V96.1514H102.943ZM106.149 92.3164C106.149 91.7467 106.19 91.1862 106.272 90.6348C106.354 90.0788 106.479 89.541 106.648 89.0215C106.817 88.4974 107.028 87.9961 107.284 87.5176C107.543 87.0345 107.851 86.5811 108.207 86.1572H109.382C108.744 87.0368 108.259 88.0029 107.926 89.0557C107.598 90.1084 107.434 91.1908 107.434 92.3027C107.434 92.8451 107.475 93.3851 107.557 93.9229C107.644 94.4606 107.767 94.987 107.926 95.502C108.09 96.0169 108.293 96.516 108.535 96.999C108.776 97.4821 109.054 97.9378 109.369 98.3662H108.207C107.851 97.9561 107.543 97.5163 107.284 97.0469C107.028 96.5775 106.817 96.0876 106.648 95.5771C106.479 95.0622 106.354 94.5312 106.272 93.9844C106.19 93.4375 106.149 92.8815 106.149 92.3164ZM113.737 92.3164C113.737 92.8815 113.696 93.4375 113.613 93.9844C113.531 94.5312 113.404 95.0622 113.231 95.5771C113.062 96.0876 112.848 96.5775 112.588 97.0469C112.333 97.5163 112.028 97.9561 111.672 98.3662H110.51C110.824 97.9378 111.102 97.4821 111.344 96.999C111.585 96.516 111.788 96.0169 111.952 95.502C112.116 94.987 112.239 94.4606 112.321 93.9229C112.404 93.3851 112.445 92.8451 112.445 92.3027C112.445 91.1908 112.28 90.1084 111.952 89.0557C111.624 88.0029 111.139 87.0368 110.496 86.1572H111.672C112.028 86.5811 112.333 87.0345 112.588 87.5176C112.848 87.9961 113.062 88.4974 113.231 89.0215C113.404 89.541 113.531 90.0788 113.613 90.6348C113.696 91.1862 113.737 91.7467 113.737 92.3164ZM121.905 96.2607C121.905 96.4795 121.932 96.6572 121.987 96.7939C122.042 96.9352 122.119 97.0446 122.219 97.1221C122.324 97.2041 122.45 97.2588 122.595 97.2861C122.746 97.318 122.912 97.3363 123.094 97.3408V98.3662C122.743 98.3617 122.418 98.3206 122.117 98.2432C121.821 98.1702 121.563 98.0518 121.344 97.8877C121.13 97.7282 120.962 97.5231 120.839 97.2725C120.715 97.0218 120.654 96.7188 120.654 96.3633V94.0801C120.654 93.6107 120.504 93.278 120.203 93.082C119.907 92.8861 119.474 92.7881 118.904 92.7881V91.7285C119.474 91.7285 119.907 91.6305 120.203 91.4346C120.504 91.2386 120.654 90.9059 120.654 90.4365V88.1602C120.654 87.8047 120.715 87.5016 120.839 87.251C120.962 87.0003 121.13 86.7952 121.344 86.6357C121.563 86.4717 121.821 86.3532 122.117 86.2803C122.418 86.2028 122.743 86.1618 123.094 86.1572V87.1758C122.912 87.1803 122.746 87.1986 122.595 87.2305C122.45 87.2578 122.324 87.3125 122.219 87.3945C122.119 87.472 122.042 87.5814 121.987 87.7227C121.932 87.8594 121.905 88.0371 121.905 88.2559V90.5254C121.905 91.0039 121.768 91.3844 121.495 91.667C121.226 91.945 120.829 92.1296 120.305 92.2207V92.3027C120.829 92.3939 121.226 92.5785 121.495 92.8564C121.768 93.1344 121.905 93.515 121.905 93.998V96.2607ZM67.9505 107.582H66.2757V114.151H65.0247V107.582H63.6986V107.069L65.0247 106.604V105.948C65.0247 105.461 65.0749 105.057 65.1751 104.738C65.2799 104.415 65.428 104.157 65.6195 103.966C65.8154 103.774 66.0547 103.64 66.3372 103.562C66.6198 103.48 66.9388 103.439 67.2943 103.439C67.5631 103.439 67.8092 103.467 68.0325 103.521C68.2604 103.572 68.4632 103.629 68.6409 103.692L68.3196 104.656C68.1784 104.606 68.0234 104.563 67.8548 104.526C67.6907 104.485 67.5176 104.465 67.3353 104.465C67.153 104.465 66.9958 104.488 66.8636 104.533C66.7314 104.574 66.6221 104.649 66.5355 104.759C66.4489 104.868 66.3828 105.019 66.3372 105.21C66.2962 105.397 66.2757 105.638 66.2757 105.935V106.646H67.9505V107.582ZM78.5664 114.151V109.318C78.5664 108.726 78.4525 108.282 78.2246 107.985C77.9968 107.689 77.6436 107.541 77.1651 107.541C76.8324 107.541 76.5498 107.596 76.3174 107.705C76.085 107.81 75.8936 107.967 75.7432 108.177C75.5974 108.382 75.4903 108.639 75.4219 108.949C75.3536 109.255 75.3194 109.608 75.3194 110.009V114.151H74.0684V109.318C74.0684 108.726 73.9545 108.282 73.7266 107.985C73.5033 107.689 73.1524 107.541 72.6739 107.541C72.323 107.541 72.029 107.6 71.792 107.719C71.5551 107.837 71.3636 108.013 71.2178 108.245C71.0765 108.478 70.974 108.762 70.9102 109.1C70.8509 109.437 70.8213 109.824 70.8213 110.262V114.151H69.5772V106.646H70.5889L70.7666 107.657H70.835C70.9444 107.461 71.0743 107.293 71.2246 107.151C71.375 107.006 71.5391 106.885 71.7168 106.789C71.8991 106.693 72.0905 106.623 72.2911 106.577C72.4961 106.532 72.7035 106.509 72.9131 106.509C73.46 106.509 73.9134 106.609 74.2735 106.81C74.6381 107.01 74.9069 107.325 75.0801 107.753H75.1348C75.2533 107.539 75.3946 107.354 75.5586 107.199C75.7273 107.044 75.9095 106.917 76.1055 106.816C76.306 106.712 76.5157 106.634 76.7344 106.584C76.9532 106.534 77.1765 106.509 77.4043 106.509C78.2019 106.509 78.8011 106.728 79.2022 107.165C79.6078 107.598 79.8106 108.293 79.8106 109.25V114.151H78.5664ZM84.6775 113.27C84.7595 113.27 84.8507 113.265 84.9509 113.256C85.0558 113.247 85.156 113.235 85.2517 113.222C85.3474 113.208 85.434 113.192 85.5115 113.174C85.5935 113.156 85.655 113.14 85.6961 113.126V114.069C85.6368 114.097 85.5616 114.124 85.4705 114.151C85.3793 114.179 85.2791 114.201 85.1697 114.22C85.0603 114.243 84.9464 114.258 84.8279 114.268C84.7094 114.281 84.5932 114.288 84.4793 114.288C84.1967 114.288 83.9347 114.252 83.6931 114.179C83.4516 114.106 83.242 113.98 83.0642 113.803C82.891 113.625 82.7543 113.386 82.6541 113.085C82.5538 112.78 82.5037 112.397 82.5037 111.937V107.582H81.4441V107.028L82.5037 106.495L83.0369 104.923H83.7547V106.646H85.6414V107.582H83.7547V111.937C83.7547 112.379 83.8253 112.711 83.9666 112.935C84.1124 113.158 84.3494 113.27 84.6775 113.27ZM87.2475 113.393C87.2475 113.219 87.2703 113.074 87.3159 112.955C87.3615 112.832 87.423 112.734 87.5005 112.661C87.5779 112.584 87.6691 112.529 87.7739 112.497C87.8787 112.461 87.9927 112.442 88.1157 112.442C88.2342 112.442 88.3458 112.461 88.4507 112.497C88.56 112.529 88.6535 112.584 88.7309 112.661C88.8084 112.734 88.8699 112.832 88.9155 112.955C88.9611 113.074 88.9839 113.219 88.9839 113.393C88.9839 113.561 88.9611 113.707 88.9155 113.83C88.8699 113.949 88.8084 114.047 88.7309 114.124C88.6535 114.201 88.56 114.258 88.4507 114.295C88.3458 114.331 88.2342 114.35 88.1157 114.35C87.9927 114.35 87.8787 114.331 87.7739 114.295C87.6691 114.258 87.5779 114.201 87.5005 114.124C87.423 114.047 87.3615 113.949 87.3159 113.83C87.2703 113.707 87.2475 113.561 87.2475 113.393ZM97.6311 107.083C97.6311 107.498 97.5673 107.896 97.4396 108.279C97.3166 108.662 97.1115 109.002 96.8244 109.298C96.5373 109.59 96.1568 109.824 95.6828 110.002C95.2134 110.175 94.6324 110.262 93.9396 110.262H92.9143V114.151H91.6428V104.157H94.1174C94.7281 104.157 95.2544 104.223 95.6965 104.355C96.1385 104.483 96.5031 104.672 96.7902 104.923C97.0773 105.169 97.2893 105.474 97.426 105.839C97.5627 106.203 97.6311 106.618 97.6311 107.083ZM92.9143 109.182H93.7961C94.2199 109.182 94.5891 109.145 94.9035 109.072C95.2225 108.999 95.4846 108.883 95.6896 108.724C95.8993 108.56 96.0565 108.35 96.1613 108.095C96.2661 107.835 96.3186 107.521 96.3186 107.151C96.3186 106.504 96.1317 106.026 95.758 105.716C95.3843 105.401 94.801 105.244 94.008 105.244H92.9143V109.182ZM103.065 106.509C103.198 106.509 103.346 106.516 103.51 106.529C103.674 106.538 103.815 106.554 103.934 106.577L103.769 107.726C103.642 107.703 103.51 107.685 103.373 107.671C103.241 107.653 103.115 107.644 102.997 107.644C102.71 107.644 102.448 107.703 102.211 107.821C101.974 107.935 101.769 108.102 101.596 108.32C101.427 108.535 101.295 108.794 101.199 109.1C101.108 109.4 101.062 109.735 101.062 110.104V114.151H99.8183V106.646H100.83L100.98 108.02H101.035C101.149 107.824 101.27 107.634 101.397 107.452C101.53 107.27 101.675 107.11 101.835 106.974C101.999 106.832 102.181 106.721 102.382 106.639C102.582 106.552 102.81 106.509 103.065 106.509ZM106.934 114.151H105.69V106.646H106.934V114.151ZM105.594 104.615C105.594 104.342 105.663 104.144 105.799 104.021C105.941 103.897 106.114 103.836 106.319 103.836C106.419 103.836 106.513 103.852 106.599 103.884C106.69 103.911 106.768 103.957 106.832 104.021C106.9 104.084 106.952 104.166 106.989 104.267C107.03 104.362 107.05 104.479 107.05 104.615C107.05 104.88 106.978 105.078 106.832 105.21C106.69 105.338 106.52 105.401 106.319 105.401C106.114 105.401 105.941 105.338 105.799 105.21C105.663 105.082 105.594 104.884 105.594 104.615ZM114.283 114.151V109.318C114.283 108.726 114.162 108.282 113.92 107.985C113.683 107.689 113.31 107.541 112.799 107.541C112.43 107.541 112.12 107.6 111.869 107.719C111.619 107.837 111.416 108.013 111.261 108.245C111.111 108.478 111.001 108.762 110.933 109.1C110.869 109.437 110.837 109.824 110.837 110.262V114.151H109.593V106.646H110.605L110.783 107.657H110.851C110.965 107.461 111.099 107.293 111.254 107.151C111.414 107.006 111.587 106.885 111.774 106.789C111.961 106.693 112.159 106.623 112.369 106.577C112.578 106.532 112.792 106.509 113.011 106.509C113.845 106.509 114.472 106.728 114.891 107.165C115.315 107.598 115.527 108.293 115.527 109.25V114.151H114.283ZM120.387 113.27C120.469 113.27 120.56 113.265 120.66 113.256C120.765 113.247 120.865 113.235 120.961 113.222C121.057 113.208 121.143 113.192 121.221 113.174C121.303 113.156 121.364 113.14 121.405 113.126V114.069C121.346 114.097 121.271 114.124 121.18 114.151C121.089 114.179 120.988 114.201 120.879 114.22C120.77 114.243 120.656 114.258 120.537 114.268C120.419 114.281 120.302 114.288 120.189 114.288C119.906 114.288 119.644 114.252 119.402 114.179C119.161 114.106 118.951 113.98 118.774 113.803C118.6 113.625 118.464 113.386 118.363 113.085C118.263 112.78 118.213 112.397 118.213 111.937V107.582H117.153V107.028L118.213 106.495L118.746 104.923H119.464V106.646H121.351V107.582H119.464V111.937C119.464 112.379 119.535 112.711 119.676 112.935C119.822 113.158 120.059 113.27 120.387 113.27ZM124.386 114.151H123.141V103.515H124.386V114.151ZM131.734 114.151V109.318C131.734 108.726 131.613 108.282 131.372 107.985C131.135 107.689 130.761 107.541 130.251 107.541C129.881 107.541 129.571 107.6 129.321 107.719C129.07 107.837 128.867 108.013 128.712 108.245C128.562 108.478 128.453 108.762 128.384 109.1C128.32 109.437 128.289 109.824 128.289 110.262V114.151H127.044V106.646H128.056L128.234 107.657H128.302C128.416 107.461 128.551 107.293 128.706 107.151C128.865 107.006 129.038 106.885 129.225 106.789C129.412 106.693 129.61 106.623 129.82 106.577C130.029 106.532 130.244 106.509 130.462 106.509C131.296 106.509 131.923 106.728 132.342 107.165C132.766 107.598 132.978 108.293 132.978 109.25V114.151H131.734ZM134.94 110.316C134.94 109.747 134.981 109.186 135.063 108.635C135.145 108.079 135.27 107.541 135.439 107.021C135.607 106.497 135.819 105.996 136.074 105.518C136.334 105.035 136.642 104.581 136.997 104.157H138.173C137.535 105.037 137.05 106.003 136.717 107.056C136.389 108.108 136.225 109.191 136.225 110.303C136.225 110.845 136.266 111.385 136.348 111.923C136.434 112.461 136.558 112.987 136.717 113.502C136.881 114.017 137.084 114.516 137.325 114.999C137.567 115.482 137.845 115.938 138.159 116.366H136.997C136.642 115.956 136.334 115.516 136.074 115.047C135.819 114.577 135.607 114.088 135.439 113.577C135.27 113.062 135.145 112.531 135.063 111.984C134.981 111.438 134.94 110.882 134.94 110.316ZM141.755 107.582L141.659 107.432C141.723 107.186 141.798 106.924 141.885 106.646C141.976 106.368 142.074 106.087 142.179 105.805C142.283 105.522 142.395 105.242 142.514 104.964C142.632 104.681 142.748 104.412 142.862 104.157H143.799C143.73 104.435 143.662 104.725 143.594 105.025C143.53 105.326 143.468 105.627 143.409 105.928C143.35 106.224 143.295 106.513 143.245 106.796C143.195 107.078 143.152 107.34 143.115 107.582H141.755ZM139.123 107.582L139.027 107.432C139.091 107.186 139.166 106.924 139.253 106.646C139.344 106.368 139.442 106.087 139.547 105.805C139.652 105.522 139.763 105.242 139.882 104.964C140 104.681 140.116 104.412 140.23 104.157H141.167C141.099 104.435 141.03 104.725 140.962 105.025C140.898 105.326 140.837 105.627 140.777 105.928C140.718 106.224 140.663 106.513 140.613 106.796C140.563 107.078 140.52 107.34 140.483 107.582H139.123ZM152.692 114.151H151.421V109.489H146.868V114.151H145.596V104.157H146.868V108.368H151.421V104.157H152.692V114.151ZM158.489 114.288C157.987 114.288 157.529 114.204 157.115 114.035C156.7 113.867 156.342 113.62 156.041 113.297C155.745 112.973 155.515 112.572 155.351 112.094C155.187 111.615 155.105 111.068 155.105 110.453C155.105 109.833 155.18 109.28 155.33 108.792C155.481 108.304 155.693 107.892 155.966 107.555C156.24 107.213 156.565 106.953 156.944 106.775C157.327 106.598 157.748 106.509 158.208 106.509C158.66 106.509 159.065 106.591 159.425 106.755C159.785 106.914 160.091 107.142 160.341 107.438C160.592 107.73 160.783 108.083 160.915 108.498C161.052 108.908 161.121 109.364 161.121 109.865V110.638H156.39C156.413 111.517 156.597 112.164 156.944 112.579C157.295 112.994 157.814 113.201 158.502 113.201C158.735 113.201 158.949 113.19 159.145 113.167C159.345 113.144 159.537 113.112 159.719 113.071C159.906 113.026 160.086 112.971 160.259 112.907C160.432 112.839 160.608 112.764 160.786 112.682V113.789C160.603 113.876 160.423 113.951 160.246 114.015C160.072 114.078 159.892 114.131 159.705 114.172C159.523 114.213 159.332 114.243 159.131 114.261C158.935 114.279 158.721 114.288 158.489 114.288ZM158.181 107.541C157.662 107.541 157.249 107.719 156.944 108.074C156.643 108.43 156.468 108.947 156.417 109.626H159.781C159.781 109.316 159.749 109.034 159.685 108.778C159.626 108.519 159.53 108.298 159.398 108.115C159.27 107.933 159.106 107.792 158.906 107.691C158.705 107.591 158.464 107.541 158.181 107.541ZM164.538 114.151H163.294V103.515H164.538V114.151ZM168.441 114.151H167.197V103.515H168.441V114.151ZM177.218 110.385C177.218 111.009 177.141 111.565 176.986 112.053C176.836 112.536 176.617 112.944 176.33 113.276C176.047 113.604 175.703 113.855 175.297 114.028C174.892 114.201 174.436 114.288 173.93 114.288C173.461 114.288 173.028 114.201 172.631 114.028C172.235 113.855 171.891 113.604 171.599 113.276C171.312 112.944 171.086 112.536 170.922 112.053C170.763 111.565 170.683 111.009 170.683 110.385C170.683 109.765 170.758 109.216 170.909 108.737C171.064 108.254 171.282 107.849 171.565 107.521C171.848 107.188 172.192 106.937 172.597 106.769C173.007 106.595 173.465 106.509 173.971 106.509C174.441 106.509 174.874 106.595 175.27 106.769C175.667 106.937 176.008 107.188 176.295 107.521C176.587 107.849 176.813 108.254 176.972 108.737C177.136 109.216 177.218 109.765 177.218 110.385ZM171.968 110.385C171.968 111.337 172.123 112.055 172.433 112.538C172.748 113.017 173.256 113.256 173.958 113.256C174.659 113.256 175.163 113.017 175.468 112.538C175.778 112.055 175.933 111.337 175.933 110.385C175.933 109.432 175.776 108.721 175.461 108.252C175.152 107.778 174.646 107.541 173.944 107.541C173.242 107.541 172.736 107.778 172.426 108.252C172.121 108.721 171.968 109.432 171.968 110.385ZM180.745 112.524L180.848 112.682C180.784 112.928 180.707 113.19 180.616 113.468C180.529 113.746 180.431 114.026 180.322 114.309C180.217 114.591 180.105 114.871 179.987 115.149C179.873 115.432 179.759 115.701 179.645 115.956H178.701C178.77 115.678 178.836 115.389 178.9 115.088C178.968 114.787 179.032 114.486 179.091 114.186C179.155 113.889 179.212 113.6 179.262 113.317C179.312 113.03 179.355 112.766 179.392 112.524H180.745ZM192.858 114.151L191.71 109.94C191.691 109.858 191.669 109.767 191.641 109.667C191.614 109.562 191.587 109.453 191.559 109.339C191.532 109.225 191.502 109.109 191.47 108.99C191.443 108.872 191.416 108.756 191.388 108.642C191.325 108.377 191.259 108.104 191.19 107.821H191.149C191.085 108.108 191.024 108.384 190.965 108.648C190.914 108.876 190.86 109.111 190.801 109.353C190.746 109.594 190.693 109.799 190.643 109.968L189.467 114.151H188.025L186.104 106.646H187.41L188.305 110.638C188.351 110.843 188.397 111.066 188.442 111.308C188.488 111.545 188.531 111.782 188.572 112.019C188.613 112.251 188.649 112.472 188.681 112.682C188.713 112.887 188.738 113.055 188.757 113.188H188.798C188.82 113.069 188.85 112.912 188.886 112.716C188.927 112.515 188.971 112.306 189.016 112.087C189.066 111.864 189.117 111.645 189.167 111.431C189.217 111.212 189.265 111.027 189.31 110.877L190.534 106.646H191.874L193.05 110.877C193.091 111.032 193.136 111.214 193.186 111.424C193.241 111.633 193.293 111.848 193.343 112.066C193.394 112.281 193.439 112.488 193.48 112.688C193.521 112.889 193.551 113.055 193.569 113.188H193.61C193.624 113.069 193.644 112.912 193.672 112.716C193.704 112.515 193.74 112.297 193.781 112.06C193.822 111.823 193.865 111.581 193.911 111.335C193.961 111.084 194.011 110.852 194.061 110.638L194.998 106.646H196.269L194.328 114.151H192.858ZM204 110.385C204 111.009 203.923 111.565 203.768 112.053C203.618 112.536 203.399 112.944 203.112 113.276C202.829 113.604 202.485 113.855 202.08 114.028C201.674 114.201 201.218 114.288 200.712 114.288C200.243 114.288 199.81 114.201 199.414 114.028C199.017 113.855 198.673 113.604 198.381 113.276C198.094 112.944 197.869 112.536 197.705 112.053C197.545 111.565 197.465 111.009 197.465 110.385C197.465 109.765 197.54 109.216 197.691 108.737C197.846 108.254 198.065 107.849 198.347 107.521C198.63 107.188 198.974 106.937 199.379 106.769C199.789 106.595 200.247 106.509 200.753 106.509C201.223 106.509 201.656 106.595 202.052 106.769C202.449 106.937 202.79 107.188 203.078 107.521C203.369 107.849 203.595 108.254 203.754 108.737C203.918 109.216 204 109.765 204 110.385ZM198.75 110.385C198.75 111.337 198.905 112.055 199.215 112.538C199.53 113.017 200.038 113.256 200.74 113.256C201.442 113.256 201.945 113.017 202.25 112.538C202.56 112.055 202.715 111.337 202.715 110.385C202.715 109.432 202.558 108.721 202.244 108.252C201.934 107.778 201.428 107.541 200.726 107.541C200.024 107.541 199.518 107.778 199.208 108.252C198.903 108.721 198.75 109.432 198.75 110.385ZM209.489 106.509C209.622 106.509 209.77 106.516 209.934 106.529C210.098 106.538 210.239 106.554 210.358 106.577L210.194 107.726C210.066 107.703 209.934 107.685 209.797 107.671C209.665 107.653 209.54 107.644 209.421 107.644C209.134 107.644 208.872 107.703 208.635 107.821C208.398 107.935 208.193 108.102 208.02 108.32C207.851 108.535 207.719 108.794 207.623 109.1C207.532 109.4 207.486 109.735 207.486 110.104V114.151H206.242V106.646H207.254L207.404 108.02H207.459C207.573 107.824 207.694 107.634 207.821 107.452C207.954 107.27 208.099 107.11 208.259 106.974C208.423 106.832 208.605 106.721 208.806 106.639C209.006 106.552 209.234 106.509 209.489 106.509ZM213.358 114.151H212.114V103.515H213.358V114.151ZM220.652 113.146H220.597C220.497 113.301 220.379 113.45 220.242 113.591C220.11 113.728 219.955 113.848 219.777 113.953C219.604 114.058 219.408 114.14 219.189 114.199C218.97 114.258 218.724 114.288 218.451 114.288C218.027 114.288 217.64 114.206 217.289 114.042C216.938 113.878 216.637 113.634 216.386 113.311C216.136 112.982 215.942 112.577 215.805 112.094C215.669 111.611 215.6 111.05 215.6 110.412C215.6 109.77 215.669 109.207 215.805 108.724C215.942 108.236 216.136 107.828 216.386 107.5C216.637 107.172 216.938 106.926 217.289 106.762C217.64 106.593 218.027 106.509 218.451 106.509C218.72 106.509 218.963 106.538 219.182 106.598C219.401 106.657 219.597 106.737 219.77 106.837C219.948 106.937 220.105 107.053 220.242 107.186C220.379 107.318 220.497 107.457 220.597 107.603H220.679C220.666 107.448 220.652 107.299 220.638 107.158C220.629 107.04 220.62 106.919 220.611 106.796C220.602 106.668 220.597 106.568 220.597 106.495V103.515H221.841V114.151H220.837L220.652 113.146ZM218.69 113.256C219.036 113.256 219.328 113.203 219.565 113.099C219.807 112.994 220 112.834 220.146 112.62C220.296 112.406 220.406 112.139 220.474 111.82C220.547 111.497 220.588 111.121 220.597 110.692V110.412C220.597 109.952 220.565 109.544 220.502 109.188C220.442 108.828 220.337 108.528 220.187 108.286C220.041 108.04 219.845 107.855 219.599 107.732C219.353 107.605 219.046 107.541 218.676 107.541C218.061 107.541 217.608 107.789 217.316 108.286C217.029 108.783 216.885 109.496 216.885 110.426C216.885 111.378 217.029 112.089 217.316 112.559C217.608 113.023 218.066 113.256 218.69 113.256ZM225.608 111.321H224.781L224.432 104.157H225.956L225.608 111.321ZM224.316 113.393C224.316 113.219 224.339 113.074 224.384 112.955C224.43 112.832 224.491 112.734 224.569 112.661C224.646 112.584 224.737 112.529 224.842 112.497C224.947 112.461 225.061 112.442 225.184 112.442C225.302 112.442 225.414 112.461 225.519 112.497C225.628 112.529 225.722 112.584 225.799 112.661C225.877 112.734 225.938 112.832 225.984 112.955C226.029 113.074 226.052 113.219 226.052 113.393C226.052 113.561 226.029 113.707 225.984 113.83C225.938 113.949 225.877 114.047 225.799 114.124C225.722 114.201 225.628 114.258 225.519 114.295C225.414 114.331 225.302 114.35 225.184 114.35C225.061 114.35 224.947 114.331 224.842 114.295C224.737 114.258 224.646 114.201 224.569 114.124C224.491 114.047 224.43 113.949 224.384 113.83C224.339 113.707 224.316 113.561 224.316 113.393ZM229.565 104.157L229.661 104.308C229.597 104.558 229.52 104.823 229.429 105.101C229.342 105.374 229.244 105.654 229.135 105.941C229.03 106.224 228.918 106.504 228.8 106.782C228.686 107.06 228.572 107.327 228.458 107.582H227.522C227.585 107.309 227.649 107.021 227.713 106.721C227.781 106.42 227.845 106.119 227.904 105.818C227.968 105.518 228.025 105.226 228.075 104.943C228.125 104.661 228.169 104.399 228.205 104.157H229.565ZM232.197 104.157L232.293 104.308C232.229 104.558 232.152 104.823 232.061 105.101C231.974 105.374 231.876 105.654 231.767 105.941C231.662 106.224 231.55 106.504 231.432 106.782C231.318 107.06 231.204 107.327 231.09 107.582H230.153C230.217 107.309 230.281 107.021 230.345 106.721C230.413 106.42 230.477 106.119 230.536 105.818C230.6 105.518 230.657 105.226 230.707 104.943C230.757 104.661 230.801 104.399 230.837 104.157H232.197ZM236.387 110.316C236.387 110.882 236.346 111.438 236.264 111.984C236.182 112.531 236.055 113.062 235.882 113.577C235.713 114.088 235.499 114.577 235.239 115.047C234.984 115.516 234.678 115.956 234.323 116.366H233.161C233.475 115.938 233.753 115.482 233.995 114.999C234.236 114.516 234.439 114.017 234.603 113.502C234.767 112.987 234.89 112.461 234.972 111.923C235.054 111.385 235.095 110.845 235.095 110.303C235.095 109.191 234.931 108.108 234.603 107.056C234.275 106.003 233.79 105.037 233.147 104.157H234.323C234.678 104.581 234.984 105.035 235.239 105.518C235.499 105.996 235.713 106.497 235.882 107.021C236.055 107.541 236.182 108.079 236.264 108.635C236.346 109.186 236.387 109.747 236.387 110.316ZM41.5381 129.998C41.5381 129.515 41.6725 129.134 41.9414 128.856C42.2148 128.578 42.6136 128.394 43.1377 128.303V128.221C42.6136 128.13 42.2148 127.945 41.9414 127.667C41.6725 127.384 41.5381 127.004 41.5381 126.525V124.256C41.5381 124.037 41.5107 123.859 41.4561 123.723C41.4014 123.581 41.3216 123.472 41.2168 123.395C41.1165 123.312 40.9912 123.258 40.8408 123.23C40.695 123.199 40.5309 123.18 40.3486 123.176V122.157C40.6995 122.162 41.0231 122.203 41.3193 122.28C41.6201 122.353 41.8776 122.472 42.0918 122.636C42.3105 122.795 42.4814 123 42.6045 123.251C42.7275 123.502 42.7891 123.805 42.7891 124.16V126.437C42.7891 126.674 42.8255 126.874 42.8984 127.038C42.9759 127.202 43.0876 127.337 43.2334 127.441C43.3838 127.542 43.5684 127.615 43.7871 127.66C44.0059 127.706 44.2565 127.729 44.5391 127.729V128.788C43.9694 128.788 43.5342 128.886 43.2334 129.082C42.9372 129.278 42.7891 129.611 42.7891 130.08V132.363C42.7891 132.719 42.7275 133.022 42.6045 133.272C42.4814 133.523 42.3105 133.728 42.0918 133.888C41.8776 134.052 41.6201 134.17 41.3193 134.243C41.0231 134.321 40.6995 134.362 40.3486 134.366V133.341C40.5309 133.336 40.695 133.318 40.8408 133.286C40.9912 133.259 41.1165 133.204 41.2168 133.122C41.3216 133.045 41.4014 132.935 41.4561 132.794C41.5107 132.657 41.5381 132.479 41.5381 132.261V129.998Z"
        fill="black" />
</svg>
    