<?xml version="1.0" encoding="utf-8"?>
<!-- Generator: Adobe Illustrator 25.2.3, SVG Export Plug-In . SVG Version: 6.00 Build 0)  -->
<svg version="1.1" id="Layer_1" xmlns="http://www.w3.org/2000/svg" xmlns:xlink="http://www.w3.org/1999/xlink" x="0px" y="0px"
	 viewBox="0 0 378.6 79.3" style="enable-background:new 0 0 378.6 79.3;" xml:space="preserve">
<style type="text/css">
	.st0{fill:#A9ADB1;}
	.st1{fill:#E0121C;}
</style>
<g>
	<path class="st0" d="M19.3,32.3v21.1c0,6.5,5.3,11.8,11.8,11.8h2.8v12.2h-2.8c-13.2,0-23.9-10.7-23.9-23.9V32.3H0V21.8h7.2v-15
		h12.2v15h14.7v10.4H19.3z M39.8,77.3h12.8V46c0-8.5,4.8-13.8,11.9-13.8s11.2,4.8,11.2,13.4v31.6h12.7V46c0-8.9,4.9-13.8,11.9-13.8
		c7.1,0,11.2,4.7,11.2,13.5v31.5h12.7V41.9c0-13.5-7.4-21.2-19.4-21.2c-8.4,0-14.3,3.9-18.7,9.8c-2.9-5.9-8.6-9.8-16.6-9.8
		c-8.5,0-13.3,4.6-16.9,9.6v-8.4H39.8V77.3z M104.8,20.7c-8.4,0-14.3,3.9-18.7,9.8c-2.9-5.9-8.6-9.8-16.6-9.8
		c-8.5,0-13.3,4.6-16.9,9.6v-8.4H39.8v55.5h12.8V46c0-8.5,4.8-13.8,11.9-13.8c7,0,11.2,4.8,11.2,13.4v31.6h12.7V46
		c0-8.9,4.9-13.8,11.9-13.8c7.1,0,11.2,4.7,11.2,13.5v31.5h12.7V41.9C124.3,28.4,116.9,20.7,104.8,20.7"/>
	<path class="st1" d="M378.6,41.9v35.4h-12.7V45.8c0-8.8-4.1-13.5-11.2-13.5c-6.9,0-11.9,4.8-11.9,13.8v31.3h-12.7V45.7
		c0-8.6-4.2-13.4-11.2-13.4c-6.8,0-11.6,5-11.8,13v32h0h-12.8h0v-8.6c-3.6,5.2-8.7,9.7-17.3,9.7c-12.5,0-19.7-8.4-19.7-21.3V21.8
		h12.7v31.5c0,8.6,4.3,13.4,11.9,13.4c7.2,0,12.2-4.8,12.5-13v-32h0H307h0v8.4c3.6-4.9,8.4-9.5,16.9-9.5c8,0,13.7,3.9,16.6,9.8
		c4.4-5.9,10.3-9.8,18.7-9.8C371.3,20.7,378.6,28.4,378.6,41.9z M253.7,21.9c-9,0.1-15,5.7-18.3,13.6V21.8h-12.8v55.5h12.8v-20
		c0-14.4,7.5-21.6,18.3-21.9V21.9z M172.6,21.9h-22.9v-2.6c0-5.7,2.2-8.4,7-8.4c2.7,0,4.9,0.5,7.5,1.4V1.5
		c-2.8-0.8-5.9-1.5-10.4-1.5c-5.4,0-9.5,1.5-12.4,4.4c-2.9,2.9-4.5,7.6-4.5,13.7v3.7h-17.6c3.3,2.6,5.7,6.2,7.1,10.6h10.5v44.9h12.8
		V32.4H162C164.7,28.1,168.3,24.5,172.6,21.9z M219.2,49.9c0-16.2-13.2-29.4-29.4-29.4s-29.4,13.2-29.4,29.4s13.2,29.4,29.4,29.4
		S219.2,66.1,219.2,49.9z M189.8,66.4c-9.1,0-16.5-7.4-16.5-16.5s7.4-16.5,16.5-16.5s16.5,7.4,16.5,16.5S198.9,66.4,189.8,66.4z
		 M189.8,20.5c-16.2,0-29.4,13.2-29.4,29.4s13.2,29.4,29.4,29.4s29.4-13.2,29.4-29.4S206,20.5,189.8,20.5 M189.8,66.4
		c-9.1,0-16.5-7.4-16.5-16.5s7.4-16.5,16.5-16.5c9.1,0,16.5,7.4,16.5,16.5S198.9,66.4,189.8,66.4"/>
</g>
</svg>
