<svg width="26" height="26" viewBox="0 0 26 26" fill="none" xmlns="http://www.w3.org/2000/svg">
<path d="M6.95956 17.6262C6.56904 18.0168 6.56904 18.6499 6.95956 19.0404C7.35008 19.431 7.98325 19.431 8.37377 19.0404L6.95956 17.6262ZM17.3333 11.6667C17.3333 13.3235 15.9902 14.6667 14.3333 14.6667V16.6667C17.0948 16.6667 19.3333 14.4281 19.3333 11.6667H17.3333ZM11.3333 11.6667C11.3333 10.0098 12.6765 8.66667 14.3333 8.66667V6.66667C11.5719 6.66667 9.33333 8.90524 9.33333 11.6667H11.3333ZM14.3333 8.66667C15.9902 8.66667 17.3333 10.0098 17.3333 11.6667H19.3333C19.3333 8.90524 17.0948 6.66667 14.3333 6.66667V8.66667ZM10.7978 13.788L6.95956 17.6262L8.37377 19.0404L12.212 15.2022L10.7978 13.788ZM14.3333 14.6667C13.5046 14.6667 12.756 14.332 12.212 13.788L10.7978 15.2022C11.7015 16.1059 12.9529 16.6667 14.3333 16.6667V14.6667ZM12.212 13.788C11.668 13.244 11.3333 12.4954 11.3333 11.6667H9.33333C9.33333 13.0471 9.89407 14.2985 10.7978 15.2022L12.212 13.788ZM24 13C24 19.0751 19.0751 24 13 24V26C20.1797 26 26 20.1797 26 13H24ZM13 24C6.92487 24 2 19.0751 2 13H0C0 20.1797 5.8203 26 13 26V24ZM2 13C2 6.92487 6.92487 2 13 2V0C5.8203 0 0 5.8203 0 13H2ZM13 2C19.0751 2 24 6.92487 24 13H26C26 5.8203 20.1797 0 13 0V2Z" fill="#0D2548"/>
</svg>
