<?xml version="1.0" encoding="UTF-8"?>
<svg width="749px" height="418px" viewBox="0 0 749 418" version="1.1" xmlns="http://www.w3.org/2000/svg" xmlns:xlink="http://www.w3.org/1999/xlink">
    <title>Group 13 Copy</title>
    <defs>
        <rect id="path-1" x="0" y="0" width="749" height="418"></rect>
        <polygon id="path-3" points="0 0 471 0 471 525 0 525"></polygon>
        <polygon id="path-5" points="0 0 189 0 189 211 0 211"></polygon>
        <polygon id="path-7" points="0 0 189 0 189 211 0 211"></polygon>
        <polygon id="path-9" points="0 0 133 0 133 149 0 149"></polygon>
        <polygon id="path-11" points="-0.0882352941 -0.0588235294 132.911765 -0.0588235294 132.911765 148.941176 -0.0882352941 148.941176"></polygon>
        <polygon id="path-13" points="0 0 186 0 186 208 0 208"></polygon>
    </defs>
    <g id="Pages" stroke="none" stroke-width="1" fill="none" fill-rule="evenodd">
        <g id="Design---Suppliers-details" transform="translate(-851.000000, -62.000000)">
            <g id="Group-13-Copy" transform="translate(851.000000, 62.000000)">
                <mask id="mask-2" fill="white">
                    <use xlink:href="#path-1"></use>
                </mask>
                <g id="Mask"></g>
                <g id="Group-13" mask="url(#mask-2)">
                    <g transform="translate(139.088235, -100.000000)">
                        <path d="M171.911765,464.749628 L212.911023,441 L253.911765,464.749628 L253.911765,512.248884 L212.911023,536 L171.911765,512.248884 L171.911765,464.749628 Z M154.322284,531.975481 L204.004193,560.813307 C209.031933,563.729391 215.788649,563.729391 220.82081,560.810343 L270.501245,531.975481 L270.502719,531.975481 C275.531933,529.056433 278.911765,523.170921 278.911765,517.332824 L278.911765,459.666064 C278.911765,453.827968 275.531933,447.943937 270.501245,445.023407 L220.817862,416.188545 C218.30473,414.729021 215.358247,414 212.411765,414 C209.465282,414 206.517326,414.730503 204.001245,416.190027 L154.32081,445.023407 C149.291597,447.943937 145.911765,453.827968 145.911765,459.666064 L145.911765,517.332824 C145.911765,523.170921 149.291597,529.056433 154.322284,531.975481 Z" id="Stroke-6-Copy-3" stroke="#DC6526" stroke-width="3"></path>
                        <path d="M389.911765,72.4994754 L447.910716,39 L505.911765,72.4994754 L505.911765,139.498426 L447.910716,173 L389.911765,139.498426 L389.911765,72.4994754 Z M364.863556,167.06595 L435.464163,207.903408 C442.608846,212.032897 452.210495,212.032897 459.361461,207.899211 L529.959974,167.06595 L529.962068,167.06595 C537.108846,162.932264 541.911765,154.597747 541.911765,146.330375 L541.911765,64.6680506 C541.911765,56.4006792 537.108846,48.0682599 529.959974,43.9324759 L459.357272,3.09921512 C455.785978,1.03237227 451.598871,0 447.411765,0 C443.224658,0 439.035457,1.03447058 435.459974,3.10131343 L364.861461,43.9324759 C357.714684,48.0682599 352.911765,56.4006792 352.911765,64.6680506 L352.911765,146.330375 C352.911765,154.597747 357.714684,162.932264 364.863556,167.06595 Z" id="Stroke-6-Copy-5" stroke="#DC6526" stroke-width="3"></path>
                        <g id="Group-10-Copy-5" opacity="0.2" stroke="none" stroke-width="1" fill-rule="evenodd" transform="translate(316.911765, 181.000000)">
                            <mask id="mask-4" fill="white">
                                <use xlink:href="#path-3"></use>
                            </mask>
                            <g id="Clip-9"></g>
                            <path d="M29.784952,415.685938 L205.728098,517.290631 C223.533298,527.57066 247.466702,527.57066 265.287562,517.28541 L441.220268,415.685938 C459.030688,405.400688 471,384.663119 471,364.092619 L471,160.904117 C471,140.333618 459.030688,119.596048 441.220268,109.310799 L265.277122,7.70610589 C256.371912,2.56870196 245.942481,0 235.50783,0 C225.073179,0 214.628088,2.5739229 205.717658,7.71654776 L29.784952,109.310799 C11.974532,119.596048 0,140.333618 0,160.904117 L0,364.092619 C0,384.663119 11.974532,405.400688 29.784952,415.685938" id="Fill-8" fill="#FFFFFF" mask="url(#mask-4)"></path>
                        </g>
                        <path d="M264.049186,345.691014 L333.636648,385.945876 C340.678802,390.018731 350.142663,390.018731 357.191011,385.941739 L426.774344,345.691014 C433.820626,341.614023 438.554622,333.400054 438.554622,325.250207 L438.554622,244.748758 C438.554622,236.598912 433.820626,228.382874 426.774344,224.307951 L357.186882,184.05309 C353.664772,182.017697 349.539817,181 345.412797,181 C341.285777,181 337.156692,182.019765 333.632519,184.057227 L264.047121,224.307951 C257.002903,228.382874 252.268908,236.598912 252.268908,244.748758 L252.268908,325.250207 C252.268908,333.400054 257.002903,341.614023 264.049186,345.691014 Z" id="Stroke-4" stroke="#FFFFFF" stroke-width="3"></path>
                        <g id="Group-10-Copy-9" stroke="none" stroke-width="1" fill-rule="evenodd" transform="translate(147.911765, 0.000000)">
                            <mask id="mask-6" fill="white">
                                <use xlink:href="#path-5"></use>
                            </mask>
                            <g id="Clip-9"></g>
                            <path d="M11.9519234,167.066158 L82.5533132,207.901568 C89.6980749,212.03316 99.3019251,212.03316 106.452971,207.89947 L177.050171,167.066158 C184.197028,162.932467 189,154.597939 189,146.330557 L189,64.668131 C189,56.4007493 184.197028,48.0662214 177.050171,43.9325305 L106.448781,3.09712065 C102.875353,1.03237355 98.6902949,0 94.5031419,0 C90.315989,0 86.1246467,1.03447187 82.5491239,3.10131729 L11.9519234,43.9325305 C4.80506699,48.0662214 0,56.4007493 0,64.668131 L0,146.330557 C0,154.597939 4.80506699,162.932467 11.9519234,167.066158" id="Fill-8" fill="#DC6526" mask="url(#mask-6)"></path>
                        </g>
                        <g id="Group-10-Copy-10" stroke="none" stroke-width="1" fill-rule="evenodd" transform="translate(559.911765, 0.000000)">
                            <mask id="mask-8" fill="white">
                                <use xlink:href="#path-7"></use>
                            </mask>
                            <g id="Clip-9"></g>
                            <path d="M11.9519234,167.066158 L82.5533132,207.901568 C89.6980749,212.03316 99.3019251,212.03316 106.452971,207.89947 L177.050171,167.066158 C184.197028,162.932467 189,154.597939 189,146.330557 L189,64.668131 C189,56.4007493 184.197028,48.0662214 177.050171,43.9325305 L106.448781,3.09712065 C102.875353,1.03237355 98.6902949,0 94.5031419,0 C90.315989,0 86.1246467,1.03447187 82.5491239,3.10131729 L11.9519234,43.9325305 C4.80506699,48.0662214 0,56.4007493 0,64.668131 L0,146.330557 C0,154.597939 4.80506699,162.932467 11.9519234,167.066158" id="Fill-8" fill="#D9DCE1" mask="url(#mask-8)"></path>
                        </g>
                        <g id="Group-10-Copy-8" stroke="none" stroke-width="1" fill-rule="evenodd" transform="translate(73.911765, 287.000000)">
                            <mask id="mask-10" fill="white">
                                <use xlink:href="#path-9"></use>
                            </mask>
                            <g id="Clip-9"></g>
                            <path d="M8.41061276,117.975628 L58.0930722,146.812008 C63.1208676,149.729578 69.8791324,149.729578 74.9113498,146.810526 L124.590861,117.975628 C129.620131,115.056576 133,109.171057 133,103.332953 L133,45.6661209 C133,39.8280173 129.620131,33.9424976 124.590861,31.0234457 L74.9084018,2.18706624 C72.3937671,0.729022081 69.448726,0 66.502211,0 C63.5556959,0 60.6062329,0.730503833 58.0901242,2.19002975 L8.41061276,31.0234457 C3.38134344,33.9424976 0,39.8280173 0,45.6661209 L0,103.332953 C0,109.171057 3.38134344,115.056576 8.41061276,117.975628" id="Fill-8" fill="#DC6526" mask="url(#mask-10)"></path>
                        </g>
                        <g id="Group-3-Copy-5" stroke="none" stroke-width="1" fill-rule="evenodd" transform="translate(0.000000, 414.058824)">
                            <mask id="mask-12" fill="white">
                                <use xlink:href="#path-11"></use>
                            </mask>
                            <g id="Clip-2"></g>
                            <path d="M25.6533198,50.7844764 L66.4117647,27.128332 L107.171684,50.7844764 L107.171684,98.0967651 L66.4117647,121.754391 L25.6533198,98.0967651 L25.6533198,50.7844764 Z M8.32228426,117.916658 L58.0041931,146.754483 C63.0319327,149.670568 69.7886487,149.670568 74.8208103,146.75152 L124.501245,117.916658 L124.502719,117.916658 C129.531933,114.99761 132.911765,109.112097 132.911765,103.274001 L132.911765,45.6072406 C132.911765,39.7691442 129.531933,33.8851136 124.501245,30.9645836 L74.8178623,2.12972174 C72.3047295,0.670197645 69.3582471,-0.0588235294 66.4117647,-0.0588235294 C63.4652823,-0.0588235294 60.5173259,0.671679395 58.0012452,2.13120349 L8.32081028,30.9645836 C3.29159669,33.8851136 -0.0882352941,39.7691442 -0.0882352941,45.6072406 L-0.0882352941,103.274001 C-0.0882352941,109.112097 3.29159669,114.99761 8.32228426,117.916658 L8.32228426,117.916658 Z" id="Fill-1" fill="#FFFFFF" mask="url(#mask-12)"></path>
                        </g>
                        <g id="Group-3-Copy-6" stroke="none" stroke-width="1" fill-rule="evenodd" transform="translate(355.911765, 354.000000)">
                            <mask id="mask-14" fill="white">
                                <use xlink:href="#path-13"></use>
                            </mask>
                            <g id="Clip-2"></g>
                            <path d="M35.999468,70.9758817 L93,37.9525392 L150.002593,70.9758817 L150.002593,137.022567 L93,170.047978 L35.999468,137.022567 L35.999468,70.9758817 Z M81.2420427,204.947435 C88.2733177,209.018211 97.7225596,209.018211 104.760019,204.943298 L174.23792,164.690605 C181.273318,160.615692 186,152.399675 186,144.249849 L186,63.7485996 C186,55.5987738 181.273318,47.3848249 174.23792,43.3078435 L104.755896,3.05515045 C101.241289,1.01769399 97.1206446,0 93,0 C88.8793554,0 84.7566495,1.01976247 81.23792,3.05721893 L11.7600186,43.3078435 C4.72668233,47.3848249 0,55.5987738 0,63.7485996 L0,144.249849 C0,152.399675 4.72668233,160.615692 11.76208,164.690605 L81.2420427,204.947435 Z" id="Fill-1" fill="#A9ADB1" mask="url(#mask-14)"></path>
                        </g>
                    </g>
                </g>
            </g>
        </g>
    </g>
</svg>