<svg width="24" height="25" viewBox="0 0 24 25" fill="none" xmlns="http://www.w3.org/2000/svg">
    <path
        d="M12 13.1514C12.5523 13.1514 13 12.7037 13 12.1514C13 11.5991 12.5523 11.1514 12 11.1514C11.4477 11.1514 11 11.5991 11 12.1514C11 12.7037 11.4477 13.1514 12 13.1514Z"
        stroke="#333333" stroke-width="2" stroke-linecap="round" stroke-linejoin="round" />
    <path
        d="M12 6.15137C12.5523 6.15137 13 5.70365 13 5.15137C13 4.59908 12.5523 4.15137 12 4.15137C11.4477 4.15137 11 4.59908 11 5.15137C11 5.70365 11.4477 6.15137 12 6.15137Z"
        stroke="#333333" stroke-width="2" stroke-linecap="round" stroke-linejoin="round" />
    <path
        d="M12 20.1514C12.5523 20.1514 13 19.7037 13 19.1514C13 18.5991 12.5523 18.1514 12 18.1514C11.4477 18.1514 11 18.5991 11 19.1514C11 19.7037 11.4477 20.1514 12 20.1514Z"
        stroke="#333333" stroke-width="2" stroke-linecap="round" stroke-linejoin="round" />
</svg>
    