<svg width="20" height="20" viewBox="0 0 20 20" fill="none" xmlns="http://www.w3.org/2000/svg">
    <path
        d="M5.83333 13.3332C3.99238 13.3332 2.5 11.8408 2.5 9.99984C2.5 8.41063 3.61214 7.08117 5.10059 6.7473C5.03474 6.45313 5 6.14721 5 5.83317C5 3.53198 6.86548 1.6665 9.16667 1.6665C11.1828 1.6665 12.8644 3.09838 13.2501 5.00065C13.2778 5.00011 13.3055 4.99984 13.3333 4.99984C15.6345 4.99984 17.5 6.86532 17.5 9.1665C17.5 11.1823 16.0685 12.8638 14.1667 13.2498M7.5 15.8332L10 18.3332M10 18.3332L12.5 15.8332M10 18.3332V8.33317"
        stroke="white" stroke-width="2" stroke-linecap="round" stroke-linejoin="round" />
</svg>
    