<svg width="56" height="56" viewBox="0 0 56 56" fill="none" xmlns="http://www.w3.org/2000/svg">
    <rect width="56" height="56" rx="28" fill="#3577DA" />
    <path
        d="M40 28C40 34.6274 34.6274 40 28 40M40 28C40 21.3726 34.6274 16 28 16M40 28H16M28 40C21.3726 40 16 34.6274 16 28M28 40C30.2091 40 32 34.6274 32 28C32 21.3726 30.2091 16 28 16M28 40C25.7909 40 24 34.6274 24 28C24 21.3726 25.7909 16 28 16M16 28C16 21.3726 21.3726 16 28 16"
        stroke="white" stroke-width="2" stroke-linecap="round" stroke-linejoin="round" />
</svg>
    