<svg xmlns="http://www.w3.org/2000/svg" width="32" height="32" viewBox="0 0 32 32" fill="none">
  <g clipPath="url(#clip0_0_3381)">
    <path d="M16 30.8027C24.1754 30.8027 30.8027 24.1754 30.8027 16C30.8027 7.82465 24.1754 1.19727 16 1.19727C7.82465 1.19727 1.19727 7.82465 1.19727 16C1.19727 24.1754 7.82465 30.8027 16 30.8027ZM16 32C7.16307 32 0 24.8369 0 16C0 7.16307 7.16307 0 16 0C24.8369 0 32 7.16307 32 16C32 24.8369 24.8369 32 16 32Z" fill="white"/>
    <path fill-rule="evenodd" clip-rule="evenodd" d="M26.665 7.894C22.1649 2.06952 13.7969 0.99557 7.97238 5.49561C2.14918 9.99565 1.07523 18.3637 5.57527 24.1869C10.074 30.0114 18.4421 31.0866 24.2666 26.5866C30.091 22.0878 31.165 13.7172 26.665 7.894Z" fill="#662482"/>
    <path fill-rule="evenodd" clip-rule="evenodd" d="M18.7401 11.5436C17.7805 11.9817 16.2184 13.3061 13.6838 15.8304L14.4045 16.5511L14.6447 16.7926L19.543 11.8943C19.6959 11.7415 19.8898 11.6644 20.089 11.6297C19.7254 11.3574 19.376 11.2533 18.7401 11.5436ZM20.9008 13.4128L15.7739 17.9179C16.2299 18.3753 16.4804 18.6245 16.6089 18.7542C18.6399 16.8273 20.5733 14.8618 20.9008 13.4128ZM12.1436 17.3938C12.1513 17.4067 12.159 17.4054 12.1667 17.4041L14.2439 16.9558L13.4025 16.1156L12.1461 17.3707C12.1423 17.3733 12.1358 17.3784 12.1436 17.3938ZM21.5611 10.4324L23.2992 8.69434C22.9485 8.42071 22.5233 8.28583 22.0981 8.28583C21.5958 8.28583 21.0935 8.47595 20.7159 8.85492C20.3459 9.22489 20.1429 9.71561 20.1429 10.2385C20.1429 10.7613 20.3459 11.2533 20.7159 11.6233C21.2837 12.1924 22.1431 12.3555 22.8804 12.0331L21.5624 10.7163C21.5252 10.6791 21.5033 10.6277 21.5033 10.575C21.502 10.5211 21.5239 10.471 21.5611 10.4324Z" fill="white"/>
    <path fill-rule="evenodd" clip-rule="evenodd" d="M23.4251 10.8859C23.3904 10.8859 23.3558 10.8731 23.3262 10.8499C23.262 10.796 23.2517 10.6983 23.3069 10.6328C23.4238 10.4915 23.4457 10.295 23.3622 10.1318C23.3249 10.056 23.3558 9.96354 23.4316 9.925C23.5073 9.88775 23.5998 9.91858 23.6384 9.99437C23.7745 10.2667 23.7373 10.5956 23.542 10.8294C23.5138 10.8653 23.4701 10.8859 23.4251 10.8859ZM23.5896 8.96796L21.9851 10.575L23.2389 11.8288C23.3262 11.7672 23.4071 11.6978 23.4842 11.6233C23.8542 11.2533 24.0572 10.7613 24.0572 10.2385C24.0572 9.76828 23.8927 9.3238 23.5896 8.96796ZM19.8256 12.1757L14.9415 17.0611L15.5029 17.6225L20.6748 13.08C20.8045 12.9657 20.879 12.8064 20.8841 12.6343C20.8893 12.4609 20.8251 12.2977 20.703 12.1744C20.4615 11.9342 20.0684 11.9342 19.8256 12.1757ZM10.7125 22.5953C10.7125 22.5953 10.7138 22.5953 10.7151 22.594C13.0441 21.4262 14.9261 20.2251 16.3109 19.0227L15.5208 18.234L13.4449 18.5564L9.33408 22.6672L10.6495 23.9826C10.6817 24.0135 10.7138 24.0058 10.7356 23.9955C10.7574 23.9826 10.7806 23.9595 10.7716 23.9158L10.5468 22.9537C10.5134 22.8098 10.5815 22.6633 10.7125 22.5953ZM10.2359 24.1342L9.05147 22.9498L8.04689 23.9544C8.04304 23.957 8.03918 23.9621 8.04304 23.9724C8.04689 23.9839 8.0546 23.9852 8.05845 23.9852L10.2359 24.1342ZM13.9767 18.0258H13.9806C13.9844 18.0258 13.9921 18.0271 13.996 18.0271L15.1637 17.8755L14.6473 17.3566L13.9767 18.0258Z" fill="white"/>
    <path fill-rule="evenodd" clip-rule="evenodd" d="M23.6397 9.99436C23.6024 9.91857 23.5086 9.88645 23.4315 9.92499C23.3558 9.96225 23.3249 10.0547 23.3622 10.1318C23.4444 10.295 23.4226 10.4915 23.3057 10.6328C23.2504 10.6983 23.2607 10.796 23.3262 10.8499C23.3545 10.873 23.3892 10.8859 23.4251 10.8859C23.4701 10.8859 23.5125 10.8653 23.5433 10.8294C23.7386 10.5956 23.7758 10.2667 23.6397 9.99436Z" fill="white"/>
  </g>
  <defs>
    <clipPath id="clip0_0_3381">
      <rect width="32" height="32" fill="white"/>
    </clipPath>
  </defs>
</svg>