<svg xmlns="http://www.w3.org/2000/svg" width="32" height="32" viewBox="0 0 32 32" fill="none">
<g clipPath="url(#clip0_0_3337)">
<path d="M16 0C7.2 0 0 7.2 0 16C0 24.8 7.2 32 16 32C24.8 32 32 24.8 32 16C32 7.2 24.8 0 16 0ZM16 1.5C24 1.5 30.5 8 30.5 16C30.5 24 24 30.5 16 30.5C8 30.5 1.5 24 1.5 16C1.5 8 8 1.5 16 1.5ZM11.2 7.8C11 7.8 10.8 7.8 10.6 7.8C9.3 7.9 8.5 8.5 8.3 9.8C8.1 10.7 8.2 11.6 8.1 12.5C8.1 13 8 13.4 7.9 13.9C7.7 14.7 7.4 15 6.5 15C6.4 15 6.3 15 6.2 15.1V17C7.7 17.1 7.9 17.6 8 19.2C8 19.8 8 20.3 8 20.9C8 21.4 8.1 22 8.2 22.5C8.5 23.9 9.9 24.4 11.6 24.1V22.4C11.3 22.4 11.1 22.4 10.9 22.4C10.3 22.4 10.1 22.2 10.1 21.7C10 21 10 20.3 10 19.5C10 18.2 9.8 16.9 8.5 16C9.2 15.5 9.7 14.9 9.8 14.1C9.9 13.6 10 13 10 12.4C10 11.8 10 11.3 10 10.7C10.1 9.8 10.1 9.5 11.2 9.5C11.4 9.5 11.5 9.5 11.7 9.5V7.8C11.6 7.8 11.4 7.8 11.2 7.8ZM21.3 7.8C20.9 7.8 20.6 7.8 20.2 7.9V9.6C20.5 9.6 20.8 9.6 21 9.6C21.4 9.6 21.8 9.8 21.8 10.3C21.8 10.7 21.8 11.2 21.9 11.6C22 12.5 22 13.4 22.2 14.3C22.3 15 22.8 15.6 23.5 16C22.4 16.7 22.1 17.8 22 19C22 19.8 21.9 20.6 21.9 21.4C21.9 22.1 21.6 22.4 20.9 22.4C20.7 22.4 20.5 22.4 20.3 22.4V24.1C20.7 24.1 21.1 24.1 21.5 24.1C22.7 24 23.5 23.4 23.7 22.2C23.8 21.5 23.9 20.9 23.9 20.2C23.9 19.6 23.9 19 24 18.4C24.1 17.4 24.5 17.1 25.5 17C25.6 17 25.7 17 25.8 16.9V14.9C25.6 14.9 25.5 14.9 25.4 14.9C24.7 14.9 24.3 14.6 24.1 14C24 13.6 23.9 13.1 23.9 12.7C23.8 11.9 23.9 11 23.8 10.2C23.7 8.6 22.7 7.9 21.3 7.8ZM12.1 14.9C10.7 14.9 10.6 17 12 17.1H12.1C12.7 17.1 13.2 16.7 13.3 16.1V16C13.2 15.4 12.7 14.9 12.1 14.9ZM16 14.9C15.4 14.9 14.9 15.3 14.9 15.9V16C14.9 16.7 15.4 17.1 16 17.1C16.7 17.1 17.1 16.7 17.1 16C17.1 15.3 16.7 14.9 16 14.9ZM19.9 14.9C19.3 14.9 18.8 15.4 18.7 16C18.7 16.6 19.2 17.1 19.8 17.1C20.4 17.2 20.9 16.7 21 16C21.1 15.4 20.6 14.9 19.9 14.9Z" fill="white"/>
</g>
<defs>
<clipPath id="clip0_0_3337">
<rect width="32" height="32" fill="white"/>
</clipPath>
</defs>
</svg>