<svg width="14" height="15" viewBox="0 0 14 15" fill="none" xmlns="http://www.w3.org/2000/svg">
    <g clip-path="url(#clip0_1_12941)">
        <path
            d="M9.91669 1.31802H11.4742C11.8043 1.31218 12.1251 1.42777 12.3757 1.64283C12.6262 1.8579 12.7891 2.15747 12.8334 2.48469V6.56802C12.7891 6.89524 12.6262 7.19481 12.3757 7.40988C12.1251 7.62494 11.8043 7.74053 11.4742 7.73469H9.91669M5.83335 8.90135V11.2347C5.83335 11.6988 6.01773 12.1439 6.34591 12.4721C6.6741 12.8003 7.11922 12.9847 7.58335 12.9847L9.91669 7.73469V1.31802H3.33668C3.05533 1.31484 2.7823 1.41345 2.56791 1.59568C2.35351 1.77792 2.21221 2.03149 2.17002 2.30969L1.36502 7.55969C1.33964 7.7269 1.35092 7.89762 1.39807 8.06004C1.44522 8.22246 1.52712 8.37268 1.6381 8.5003C1.74908 8.62793 1.88647 8.72989 2.04077 8.79914C2.19506 8.86839 2.36257 8.90327 2.53168 8.90135H5.83335Z"
            stroke="#A9ADB1" stroke-linecap="round" stroke-linejoin="round" />
    </g>
    <defs>
        <clipPath id="clip0_1_12941">
            <rect width="14" height="14" fill="white" transform="translate(0 0.151367)" />
        </clipPath>
    </defs>
</svg>
    