<svg width="14" height="15" viewBox="0 0 14 15" fill="none" xmlns="http://www.w3.org/2000/svg">
    <g clip-path="url(#clip0_1_12937)">
        <path
            d="M4.08335 12.9847H2.33335C2.02393 12.9847 1.72719 12.8618 1.5084 12.643C1.2896 12.4242 1.16669 12.1275 1.16669 11.8181V7.73472C1.16669 7.4253 1.2896 7.12856 1.5084 6.90976C1.72719 6.69097 2.02393 6.56805 2.33335 6.56805H4.08335M8.16669 5.40139V3.06805C8.16669 2.60393 7.98231 2.15881 7.65412 1.83062C7.32594 1.50243 6.88082 1.31805 6.41669 1.31805L4.08335 6.56805V12.9847H10.6634C10.9447 12.9879 11.2177 12.8893 11.4321 12.7071C11.6465 12.5248 11.7878 12.2712 11.83 11.9931L12.635 6.74305C12.6604 6.57585 12.6491 6.40512 12.602 6.2427C12.5548 6.08028 12.4729 5.93006 12.3619 5.80244C12.251 5.67482 12.1136 5.57285 11.9593 5.5036C11.805 5.43435 11.6375 5.39947 11.4684 5.40139H8.16669Z"
            stroke="#A9ADB1" stroke-linecap="round" stroke-linejoin="round" />
    </g>
    <defs>
        <clipPath id="clip0_1_12937">
            <rect width="14" height="14" fill="white" transform="translate(0 0.151367)" />
        </clipPath>
    </defs>
</svg>
    