<svg xmlns="http://www.w3.org/2000/svg" width="135" height="30" viewBox="0 0 135 30" fill="none">
  <path d="M6.88345 13.1981V20.7584C6.88345 22.9985 8.70966 24.9586 11.0978 24.9586H12.0812V29.2987H11.0978C6.32154 29.2987 2.52858 25.5186 2.52858 20.7584V13.1981H0V9.55799H2.52858V4.23779H6.88345V9.55799H12.0812V13.1981H6.88345ZM14.1883 29.1587H18.8241V17.9583C18.8241 14.8782 20.5098 13.0581 23.0384 13.0581C25.567 13.0581 27.1122 14.7382 27.1122 17.8183V29.0187H31.6075V17.8183C31.6075 14.5982 33.4337 12.9181 35.8219 12.9181C38.3505 12.9181 39.8958 14.5982 39.8958 17.6783V28.8787H44.3911V16.2782C44.3911 11.5181 41.722 8.71795 37.5076 8.71795C34.5576 8.71795 32.4504 10.118 30.7647 12.2181C29.7813 10.118 27.6742 8.71795 24.8646 8.71795C21.7741 8.71795 20.0884 10.398 18.8241 12.0781V9.13797H14.1883V29.1587ZM37.3672 8.99797C34.4171 8.99797 32.3099 10.398 30.6242 12.4981C29.6408 10.398 27.5337 8.99797 24.7242 8.99797C21.6336 8.99797 19.9478 10.678 18.6835 12.3581V9.41798H14.0478V29.1587H18.6835V17.9583C18.6835 14.8782 20.3693 13.0581 22.8979 13.0581C25.4265 13.0581 26.9718 14.7382 26.9718 17.8183V29.0187H31.4671V17.8183C31.4671 14.5982 33.2933 12.9181 35.6814 12.9181C38.21 12.9181 39.7552 14.5982 39.7552 17.6783V28.8787H44.2505V16.2782C44.2505 11.7981 41.5815 8.99797 37.3672 8.99797Z" fill="white"/>
  <path d="M135 16.5594V29.1599H130.504V17.9595C130.504 14.8794 129.1 13.1993 126.431 13.1993C123.902 13.1993 122.216 14.8794 122.216 18.0995V29.2999H117.721V18.0995C117.721 15.0194 116.176 13.3393 113.647 13.3393C111.259 13.3393 109.573 15.1594 109.433 17.9595V29.2999H104.937V26.2198C103.673 28.0398 101.847 29.7199 98.7564 29.7199C94.2611 29.7199 91.7325 26.7798 91.7325 22.1596V9.55916H96.2278V20.7596C96.2278 23.8397 97.7731 25.5197 100.442 25.5197C102.971 25.5197 104.797 23.8397 104.937 20.8996V9.55916H109.433V12.4993C110.697 10.6792 112.383 9.13914 115.473 9.13914C118.283 9.13914 120.39 10.5392 121.373 12.6393C122.919 10.5392 125.026 9.13914 128.116 9.13914C132.471 8.99913 135 11.7992 135 16.5594ZM90.4683 9.41915C87.2373 9.41915 85.1301 11.3792 84.0063 14.1793V9.41915H79.3705V29.1599H84.0063V22.0196C84.0063 16.8394 86.6754 14.3193 90.4683 14.1793V9.41915ZM61.5298 9.41915H53.3821V8.43911C53.3821 6.47904 54.2249 5.49901 55.9107 5.49901C56.894 5.49901 57.7369 5.63901 58.5798 5.91902V2.13888C57.5964 1.85887 56.4727 1.57886 54.9274 1.57886C52.9607 1.57886 51.5559 2.13888 50.5725 3.11891C49.5892 4.09895 49.0273 5.77901 49.0273 8.01909V9.27914H42.7058C43.8296 10.2592 44.813 11.5192 45.2344 13.0593H49.0273V29.0199H53.6631V13.0593H58.0178C58.7202 11.6592 59.9845 10.3992 61.5298 9.41915ZM78.1063 19.4995C78.1063 13.7593 73.4705 8.99914 67.5704 8.99914C61.6703 8.99914 57.0346 13.6193 57.0346 19.4995C57.0346 25.3797 61.6703 29.9999 67.5704 29.9999C73.4705 29.9999 78.1063 25.2397 78.1063 19.4995ZM67.7109 25.3797C64.4799 25.3797 61.8108 22.7196 61.8108 19.4995C61.8108 16.2794 64.4799 13.6193 67.7109 13.6193C70.9418 13.6193 73.6109 16.2794 73.6109 19.4995C73.6109 22.7196 70.9418 25.3797 67.7109 25.3797ZM67.7109 8.99914C61.9513 8.99914 57.175 13.6193 57.175 19.4995C57.175 25.3797 61.8108 29.9999 67.7109 29.9999C73.6109 29.9999 78.2467 25.3797 78.2467 19.4995C78.2467 13.6193 73.4704 8.99914 67.7109 8.99914ZM67.7109 25.3797C64.4799 25.3797 61.8108 22.7196 61.8108 19.4995C61.8108 16.2794 64.4799 13.6193 67.7109 13.6193C70.9418 13.6193 73.6109 16.2794 73.6109 19.4995C73.6109 22.7196 70.9418 25.3797 67.7109 25.3797Z" fill="#E9242C"/>
</svg>