<svg xmlns="http://www.w3.org/2000/svg" width="32" height="32" viewBox="0 0 32 32" fill="none">
  <path d="M10.6667 21.3333L14.5049 17.4951M14.5049 17.4951C15.2288 18.219 16.2288 18.6667 17.3333 18.6667C19.5425 18.6667 21.3333 16.8758 21.3333 14.6667C21.3333 12.4575 19.5425 10.6667 17.3333 10.6667C15.1242 10.6667 13.3333 12.4575 13.3333 14.6667C13.3333 15.7712 13.781 16.7712 14.5049 17.4951ZM28 16C28 22.6274 22.6274 28 16 28C9.37258 28 4 22.6274 4 16C4 9.37258 9.37258 4 16 4C22.6274 4 28 9.37258 28 16Z" stroke="white" stroke-width="2" strokeLinecap="round"/>
</svg>