<svg width="13" height="13" viewBox="0 0 13 13" fill="none" xmlns="http://www.w3.org/2000/svg">
<g clipPath="url(#clip0_114_2467)">
<path d="M5.54163 5.375V8.375" stroke="white" strokeLinecap="round" strokeLinejoin="round"/>
<path d="M7.79163 5.375V8.375" stroke="white" strokeLinecap="round" strokeLinejoin="round"/>
<path d="M10.0416 3.125V10.25C10.0416 10.3495 10.0021 10.4448 9.93179 10.5152C9.86147 10.5855 9.76608 10.625 9.66663 10.625H3.66663C3.56717 10.625 3.47179 10.5855 3.40146 10.5152C3.33113 10.4448 3.29163 10.3495 3.29163 10.25V3.125" stroke="white" strokeLinecap="round" strokeLinejoin="round"/>
<path d="M8.54163 3.125V2.375C8.54163 2.17609 8.46261 1.98532 8.32196 1.84467C8.1813 1.70402 7.99054 1.625 7.79163 1.625H5.54163C5.34271 1.625 5.15195 1.70402 5.0113 1.84467C4.87064 1.98532 4.79163 2.17609 4.79163 2.375V3.125" stroke="white" strokeLinecap="round" strokeLinejoin="round"/>
</g>
<defs>
<clipPath id="clip0_114_2467">
<rect width="12" height="12" fill="white" transform="translate(0.666626 0.5)"/>
</clipPath>
</defs>
</svg>
