<svg width="40" height="40" viewBox="0 0 40 40" fill="none" xmlns="http://www.w3.org/2000/svg">
<path d="M30 30C31.3807 30 32.5 28.8807 32.5 27.5C32.5 26.1193 31.3807 25 30 25C28.6193 25 27.5 26.1193 27.5 27.5C27.5 28.8807 28.6193 30 30 30Z" fill="#148D81"/>
<path d="M20 13.75C21.3807 13.75 22.5 12.6307 22.5 11.25C22.5 9.86929 21.3807 8.75 20 8.75C18.6193 8.75 17.5 9.86929 17.5 11.25C17.5 12.6307 18.6193 13.75 20 13.75Z" fill="#148D81"/>
<path d="M10 30C11.3807 30 12.5 28.8807 12.5 27.5C12.5 26.1193 11.3807 25 10 25C8.61929 25 7.5 26.1193 7.5 27.5C7.5 28.8807 8.61929 30 10 30Z" fill="#148D81"/>
<path d="M5 23.75C4.40581 24.5423 4.00838 25.4644 3.84048 26.4404C3.67258 27.4164 3.73901 28.4183 4.03429 29.3635C4.32957 30.3088 4.84526 31.1704 5.53885 31.8773C6.23243 32.5842 7.08407 33.1161 8.02358 33.4293C8.96308 33.7424 9.96356 33.8279 10.9426 33.6785C11.9216 33.5292 12.851 33.1493 13.6544 32.5703C14.4578 31.9912 15.1121 31.2295 15.5634 30.348C16.0147 29.4665 16.25 28.4903 16.25 27.5H30" stroke="#148D81" stroke-width="2" stroke-linecap="round" stroke-linejoin="round"/>
<path d="M25.7281 8.74991C25.3352 7.85191 24.7365 7.05892 23.9805 6.435C23.2246 5.81108 22.3324 5.37372 21.3762 5.15825C20.42 4.94278 19.4265 4.95524 18.4759 5.19462C17.5254 5.434 16.6445 5.8936 15.9044 6.53629C15.1643 7.17897 14.5857 7.98672 14.2154 8.89429C13.8451 9.80186 13.6935 10.7838 13.7728 11.7608C13.852 12.7378 14.16 13.6824 14.6717 14.5185C15.1835 15.3545 15.8847 16.0584 16.7188 16.5733L10 27.4999" stroke="#148D81" stroke-width="2" stroke-linecap="round" stroke-linejoin="round"/>
<path d="M30 33.75C30.9658 33.749 31.9181 33.5242 32.7824 33.0932C33.6467 32.6623 34.3993 32.0369 34.9813 31.2662C35.5632 30.4955 35.9586 29.6004 36.1365 28.6511C36.3144 27.7019 36.2699 26.7244 36.0064 25.7952C35.743 24.8661 35.2678 24.0106 34.6182 23.296C33.9686 22.5814 33.1623 22.027 32.2624 21.6764C31.3625 21.3258 30.3937 21.1885 29.4318 21.2753C28.47 21.3621 27.5413 21.6706 26.7188 22.1766L20 11.25" stroke="#148D81" stroke-width="2" stroke-linecap="round" stroke-linejoin="round"/>
</svg>
