<svg width="100" height="5" viewBox="0 0 100 5" fill="none" xmlns="http://www.w3.org/2000/svg">
    <path d="M2.61258 0.754726L13.0697 0.754726C13.4181 0.754726 13.7493 0.810061 14.0704 0.917963C14.3914 1.02586 14.6748 1.17803 14.9207 1.37724C15.1632 1.57644 15.3544 1.80608 15.4876 2.06615C15.6174 2.32622 15.6857 2.59736 15.6857 2.87956C15.6857 3.16177 15.6174 3.4329 15.4876 3.69297C15.3544 3.95304 15.1632 4.18268 14.9207 4.38188C14.6748 4.58109 14.3914 4.73326 14.0704 4.84116C13.7493 4.94906 13.4181 5.00439 13.0697 5.00439L2.61258 5.00439C2.26765 5.00439 1.93297 4.94906 1.61536 4.84116C1.29434 4.73326 1.01088 4.58109 0.76499 4.38188C0.5191 4.18268 0.331268 3.95304 0.198078 3.69297C0.0648873 3.4329 0 3.16177 0 2.87956C0 2.59736 0.0648873 2.32622 0.198078 2.06615C0.331268 1.80608 0.5191 1.57644 0.76499 1.37724C1.01088 1.17803 1.29434 1.02586 1.61536 0.917963C1.93297 0.810061 2.26765 0.754726 2.61258 0.754726ZM23.5269 0.754726L33.984 0.754726C34.3289 0.754726 34.6636 0.810061 34.9846 0.917963C35.3056 1.02586 35.5857 1.17803 35.8316 1.37724C36.0775 1.57644 36.2653 1.80608 36.3985 2.06615C36.5317 2.32622 36.5966 2.59736 36.5966 2.87956C36.5966 3.16177 36.5317 3.4329 36.3985 3.69297C36.2653 3.95304 36.0775 4.18268 35.8316 4.38188C35.5857 4.58109 35.3056 4.73326 34.9846 4.84116C34.6636 4.94906 34.3289 5.00439 33.984 5.00439L23.5269 5.00439C23.1819 5.00439 22.8472 4.94906 22.5262 4.84116C22.2052 4.73326 21.9252 4.58109 21.6793 4.38188C21.4334 4.18268 21.2455 3.95304 21.1124 3.69297C20.9792 3.4329 20.9143 3.16177 20.9143 2.87956C20.9143 2.59736 20.9792 2.32622 21.1124 2.06615C21.2455 1.80608 21.4334 1.57644 21.6793 1.37724C21.9252 1.17803 22.2052 1.02586 22.5262 0.917963C22.8472 0.810061 23.1819 0.754726 23.5269 0.754726ZM44.4411 0.754726L54.8983 0.754726C55.2432 0.754726 55.5779 0.810061 55.8989 0.917963C56.2165 1.02586 56.5 1.17803 56.7459 1.37724C56.9917 1.57644 57.1796 1.80608 57.3128 2.06615C57.446 2.32622 57.5108 2.59736 57.5108 2.87956C57.5108 3.16177 57.446 3.4329 57.3128 3.69297C57.1796 3.95304 56.9917 4.18268 56.7459 4.38188C56.5 4.58109 56.2165 4.73326 55.8989 4.84116C55.5779 4.94906 55.2432 5.00439 54.8983 5.00439L44.4411 5.00439C44.0928 5.00439 43.7615 4.94906 43.4405 4.84116C43.1195 4.73326 42.836 4.58109 42.5935 4.38188C42.3477 4.18268 42.1564 3.95304 42.0266 3.69297C41.8934 3.4329 41.8251 3.16177 41.8251 2.87956C41.8251 2.59736 41.8934 2.32622 42.0266 2.06615C42.1564 1.80608 42.3477 1.57644 42.5935 1.37724C42.836 1.17803 43.1195 1.02586 43.4405 0.917963C43.7615 0.810061 44.0928 0.754726 44.4411 0.754726ZM65.352 0.754726L75.8091 0.754726C76.1575 0.754726 76.4887 0.810061 76.8098 0.917963C77.1308 1.02586 77.4142 1.17803 77.6601 1.37724C77.9026 1.57644 78.0939 1.80608 78.2236 2.06615C78.3568 2.32622 78.4251 2.59736 78.4251 2.87956C78.4251 3.16177 78.3568 3.4329 78.2236 3.69297C78.0939 3.95304 77.9026 4.18268 77.6601 4.38188C77.4142 4.58109 77.1308 4.73326 76.8098 4.84116C76.4887 4.94906 76.1575 5.00439 75.8091 5.00439L65.352 5.00439C65.0071 5.00439 64.6724 4.94906 64.3548 4.84116C64.0338 4.73326 63.7503 4.58109 63.5044 4.38188C63.2585 4.18268 63.0707 3.95304 62.9375 3.69297C62.8043 3.4329 62.7394 3.16177 62.7394 2.87956C62.7394 2.59736 62.8043 2.32622 62.9375 2.06615C63.0707 1.80608 63.2585 1.57644 63.5044 1.37724C63.7503 1.17803 64.0338 1.02586 64.3548 0.917963C64.6724 0.810061 65.0071 0.754726 65.352 0.754726ZM86.2663 0.754726L96.7234 0.754726C97.0683 0.754726 97.403 0.810061 97.724 0.917963C98.0451 1.02586 98.3251 1.17803 98.571 1.37724C98.8169 1.57644 99.0047 1.80608 99.1379 2.06615C99.2711 2.32622 99.336 2.59736 99.336 2.87956C99.336 3.16177 99.2711 3.4329 99.1379 3.69297C99.0047 3.95304 98.8169 4.18268 98.571 4.38188C98.3251 4.58109 98.0451 4.73326 97.724 4.84116C97.403 4.94906 97.0683 5.00439 96.7234 5.00439L86.2663 5.00439C85.9213 5.00439 85.5867 4.94906 85.2656 4.84116C84.9446 4.73326 84.6646 4.58109 84.4187 4.38188C84.1728 4.18268 83.985 3.95304 83.8518 3.69297C83.7186 3.4329 83.6537 3.16177 83.6537 2.87956C83.6537 2.59736 83.7186 2.32622 83.8518 2.06615C83.985 1.80608 84.1728 1.57644 84.4187 1.37724C84.6646 1.17803 84.9446 1.02586 85.2656 0.917963C85.5867 0.810061 85.9213 0.754726 86.2663 0.754726Z" fill="#DC6526"/>
    </svg>
    